<?xml version="1.0" encoding="UTF-8" standalone="no"?>
<!-- Created with Inkscape (http://www.inkscape.org/) -->

<svg xmlns:dc="http://purl.org/dc/elements/1.1/" xmlns:cc="http://creativecommons.org/ns#" xmlns:rdf="http://www.w3.org/1999/02/22-rdf-syntax-ns#" xmlns:svg="http://www.w3.org/2000/svg" xmlns="http://www.w3.org/2000/svg" xmlns:xlink="http://www.w3.org/1999/xlink" xmlns:sodipodi="http://sodipodi.sourceforge.net/DTD/sodipodi-0.dtd" xmlns:inkscape="http://www.inkscape.org/namespaces/inkscape" width="1024" height="512" id="svg7010" version="1.1" inkscape:version="0.48.4 r9939" sodipodi:docname="Linux_2014_logo.svg.2014_05_29_10_10_32.0.svg" inkscape:export-filename="/media/Work/Land of Colors/Creation/Community/Logos/Linux 2014/Linux_2014_logo.png" inkscape:export-xdpi="90" inkscape:export-ydpi="90">
   <defs id="defs7012">
      <inkscape:path-effect effect="spiro" id="path-effect6211" is_visible="true" />
      <inkscape:path-effect effect="spiro" id="path-effect7219" is_visible="true" />
      <inkscape:path-effect effect="spiro" id="path-effect7217" is_visible="true" />
      <inkscape:path-effect effect="spiro" id="path-effect7171" is_visible="true" />
      <inkscape:path-effect effect="spiro" id="path-effect7169" is_visible="true" />
      <inkscape:path-effect effect="spiro" id="path-effect7082" is_visible="true" />
      <inkscape:path-effect effect="spiro" id="path-effect7079" is_visible="true" />
      <inkscape:path-effect effect="spiro" id="path-effect6989" is_visible="true" />
      <inkscape:path-effect is_visible="true" id="path-effect6970" effect="spiro" />
      <inkscape:path-effect is_visible="true" id="path-effect7017" effect="spiro" />
      <inkscape:path-effect effect="spiro" id="path-effect6169" is_visible="true" />
      <inkscape:path-effect is_visible="true" id="path-effect6167" effect="spiro" />
      <inkscape:path-effect is_visible="true" id="path-effect6153" effect="spiro" />
      <inkscape:path-effect is_visible="true" id="path-effect6179" effect="spiro" />
      <inkscape:path-effect is_visible="true" id="path-effect6175" effect="spiro" />
      <inkscape:path-effect effect="spiro" id="path-effect6155" is_visible="true" />
      <clipPath clipPathUnits="userSpaceOnUse" id="clipPath7013">
         <path sodipodi:nodetypes="sssssssss" inkscape:connector-curvature="0" inkscape:original-d="m 315.66064,277.29971 c 0,43.71688 -67.34062,-1.53233 -58.69656,49.61955 100.02288,591.89276 -60.61058,-5.90267 -60.61058,-49.61955 0,-25.63052 8.22586,-55.83742 27.2801,-89.10843 4.6285,-8.08193 1.23433,-15.71604 4.04668,-22.55268 5.35752,-13.02377 13.20339,-24.24546 28.32679,-24.24546 14.25138,0 22.87275,11.42894 28.32678,24.24546 2.96426,6.96574 -0.69568,14.86074 4.04669,22.55268 20.66226,33.51337 27.2801,62.6425 27.2801,89.10843 z" inkscape:path-effect="#path-effect7017" id="path7015" d="m 315.66064,277.29971 c -1.58015,13.903 -9.06822,26.92059 -19.89349,35.78648 -10.82526,8.86589 -24.81226,13.61475 -38.80307,13.83307 -14.31649,0.2234 -28.77553,-4.30346 -39.99621,-13.19774 -11.22068,-8.89428 -19.01002,-22.19374 -20.61437,-36.42181 -1.75859,-15.59595 3.69827,-31.07628 10.16043,-45.37897 6.46216,-14.30269 14.09425,-28.32903 17.11967,-43.72946 1.47354,-7.50083 1.82998,-15.23694 4.04668,-22.55268 1.93135,-6.374 5.32468,-12.3851 10.24366,-16.87528 4.91897,-4.49018 11.42295,-7.37012 18.08313,-7.37018 6.66022,-6e-5 13.1643,2.87978 18.08332,7.36997 4.91901,4.49019 8.31232,10.50139 10.24346,16.87549 2.21645,7.31581 2.57242,15.052 4.04669,22.55268 3.02705,15.40083 10.66577,29.42506 17.13095,43.72715 6.46519,14.3021 11.92162,29.78619 10.14915,45.38128" style="color:black;fill:#3a5069;fill-opacity:1;fill-rule:nonzero;stroke:none;stroke-width:25;marker:none;visibility:visible;display:inline;overflow:visible;enable-background:accumulate" />
      </clipPath>
      <clipPath clipPathUnits="userSpaceOnUse" id="clipPath6985">
         <path sodipodi:nodetypes="sssssssss" inkscape:connector-curvature="0" inkscape:original-d="m 302.71545,766.98404 c 0,34.23658 -52.73737,-1.20004 -45.96783,38.85922 78.33226,463.53694 -47.46678,-4.62264 -47.46678,-38.85922 0,-20.07238 6.44203,-43.72871 21.36423,-69.78469 3.62478,-6.32931 0.96666,-12.30791 3.16914,-17.66198 4.1957,-10.19948 10.34014,-18.98767 22.18394,-18.98767 11.16087,0 17.91264,8.9505 22.18393,18.98767 2.32144,5.45517 -0.54482,11.63809 3.16914,17.66198 16.18151,26.24578 21.36423,49.05807 21.36423,69.78469 z" inkscape:path-effect="#path-effect6989" id="path6987" d="m 302.71545,766.98404 c -1.23749,10.88804 -7.10172,21.08268 -15.57946,28.02595 -8.47773,6.94326 -19.43156,10.66229 -30.38837,10.83327 -11.21187,0.17496 -22.53537,-3.37022 -31.32277,-10.33572 -8.7874,-6.9655 -14.88757,-17.38088 -16.14401,-28.5235 -1.37723,-12.21387 2.89627,-24.33719 7.95707,-35.53825 5.0608,-11.20106 11.03782,-22.18569 13.40716,-34.24644 1.154,-5.87423 1.43314,-11.93271 3.16914,-17.66198 1.51253,-4.99176 4.16999,-9.69931 8.02225,-13.21576 3.85227,-3.51646 8.94581,-5.77186 14.16169,-5.77191 5.21591,-5e-5 10.30953,2.25528 14.16183,5.77174 3.85229,3.51646 6.50974,8.22409 8.0221,13.21593 1.7358,5.72933 2.01458,11.78787 3.16914,17.66198 2.37062,12.06106 8.35283,23.04404 13.41599,34.24464 5.06317,11.20059 9.33634,23.32685 7.94824,35.54005" style="color:black;fill:#3a5069;fill-opacity:1;fill-rule:nonzero;stroke:none;stroke-width:25;marker:none;visibility:visible;display:inline;overflow:visible;enable-background:accumulate" />
      </clipPath>
   </defs>
   <sodipodi:namedview id="base" pagecolor="#ffffff" bordercolor="#666666" borderopacity="1.0" inkscape:pageopacity="0.0" inkscape:pageshadow="2" inkscape:zoom="0.70710678" inkscape:cx="505.86609" inkscape:cy="344.98824" inkscape:document-units="px" inkscape:current-layer="layer1" showgrid="false" inkscape:showpageshadow="false" inkscape:snap-page="true" inkscape:window-width="1366" inkscape:window-height="741" inkscape:window-x="0" inkscape:window-y="27" inkscape:window-maximized="1" guidecolor="white" guideopacity="0.84313725" showguides="true" inkscape:guide-bbox="true" inkscape:snap-bbox="true" inkscape:object-nodes="true" fit-margin-top="0" fit-margin-left="0" fit-margin-right="0" fit-margin-bottom="0">
      <inkscape:grid type="xygrid" id="grid6148" empspacing="5" visible="true" enabled="true" snapvisiblegridlinesonly="true" color="white" opacity="0.84313725" empcolor="white" empopacity="0.54901961" originx="0px" originy="2.6171874e-06px" />
      <sodipodi:guide orientation="0,1" position="799,116" id="guide6292" />
   </sodipodi:namedview>
   <metadata id="metadata7015">
      <rdf:RDF>
         <cc:Work rdf:about="">
            <dc:format>image/svg+xml</dc:format>
            <dc:type rdf:resource="http://purl.org/dc/dcmitype/StillImage" />
            <dc:title></dc:title>
         </cc:Work>
      </rdf:RDF>
   </metadata>
   <g inkscape:label="Layer 1" inkscape:groupmode="layer" id="layer1" transform="translate(0,-540.36218)">
      <rect y="820.36218" x="-1460" height="512" width="512" id="rect11744" style="fill:none;stroke:black;stroke-width:5;stroke-miterlimit:4;stroke-opacity:1;stroke-dasharray:none" />
      <path sodipodi:nodetypes="sssssssss" inkscape:connector-curvature="0" inkscape:original-d="m -1027.0484,1066.8201 c 0,55.2285 -14.7715,45 -70,45 -55.2285,0 -70,10.2285 -70,-45 0,-32.3796 6.457,-55.7423 30,-99.99998 5.7189,-10.75073 1.5251,-20.90577 5,-30 6.6196,-17.32445 20.0165,-30 35,-30 14.1195,0 28.2611,12.95123 35,30 3.6626,9.26596 -0.8596,19.76805 5,30 25.5299,44.58008 30,66.56498 30,99.99998 z" inkscape:path-effect="#path-effect6175" id="path6173" d="m -1027.0484,1066.8201 c -3.4382,14.5755 -13.914,26.9413 -26.86,34.4692 -12.946,7.528 -28.1644,10.5308 -43.14,10.5308 -14.9756,0 -30.194,-3.0028 -43.14,-10.5308 -12.946,-7.5279 -23.4218,-19.8937 -26.86,-34.4692 -2.032,-8.6142 -1.5878,-17.6856 0.3357,-26.3247 1.9234,-8.6391 5.2881,-16.8938 9.0744,-24.8937 7.5725,-15.99978 16.9906,-31.45007 20.5899,-48.78158 2.0633,-9.93505 2.1518,-20.26092 5,-30 2.3137,-7.91113 6.5095,-15.36542 12.6039,-20.91487 6.0945,-5.54945 14.1536,-9.08513 22.3961,-9.08513 8.2425,0 16.3016,3.53568 22.3961,9.08513 6.0944,5.54945 10.2902,13.00374 12.6039,20.91487 2.8482,9.73908 2.9367,20.06495 5,30 3.5993,17.33151 13.0174,32.7818 20.5899,48.78158 3.7863,7.9999 7.151,16.2546 9.0744,24.8937 1.9235,8.6391 2.3677,17.7105 0.3357,26.3247" style="color:black;fill:#0a0d10;fill-opacity:1;fill-rule:nonzero;stroke:none;stroke-width:25;marker:none;visibility:visible;display:inline;overflow:visible;enable-background:accumulate" />
      <path sodipodi:nodetypes="sssssssss" inkscape:connector-curvature="0" inkscape:original-d="m -1215.0833,1071.6919 c 0,55.2284 -14.7716,45 -70.0001,45 -55.2284,0 -70,10.2284 -70,-45 0,-32.3796 6.457,-55.7423 30,-100.00003 5.7189,-10.75073 1.5252,-20.90577 5,-30 6.6197,-17.32445 20.0165,-30 35,-30 14.1196,0 28.2611,12.95123 35,30 3.6626,9.26596 -0.8595,19.76805 5,30 25.5299,44.58013 30.0001,66.56503 30.0001,100.00003 z" inkscape:path-effect="#path-effect6153" id="path6181" d="m -1215.0833,1071.6919 c -3.4382,14.5756 -13.914,26.9414 -26.86,34.4693 -12.946,7.5279 -28.1645,10.5307 -43.1401,10.5307 -14.9756,0 -30.194,-3.0029 -43.14,-10.5308 -12.946,-7.5279 -23.4218,-19.8937 -26.86,-34.4692 -2.032,-8.6142 -1.5878,-17.6856 0.3357,-26.3247 1.9234,-8.6391 5.2881,-16.8938 9.0743,-24.8937 7.5725,-15.9998 16.9907,-31.45011 20.59,-48.78163 2.0633,-9.93505 2.1518,-20.26092 5,-30 2.3137,-7.91113 6.5095,-15.36542 12.6039,-20.91487 6.0945,-5.54945 14.1536,-9.08513 22.3961,-9.08513 8.2425,0 16.3016,3.53568 22.3961,9.08513 6.0944,5.54945 10.2902,13.00374 12.6039,20.91487 2.8482,9.73908 2.9367,20.06495 5,30 3.5993,17.33152 13.0175,32.78183 20.59,48.78163 3.7863,7.9999 7.1509,16.2546 9.0744,24.8937 1.9234,8.6391 2.3677,17.7105 0.3357,26.3247" style="color:black;fill:none;stroke:#0a0d10;stroke-width:2;stroke-opacity:1;marker:none;visibility:visible;display:inline;overflow:visible;enable-background:accumulate" />
      <path sodipodi:nodetypes="sssssssss" inkscape:connector-curvature="0" inkscape:original-d="m -1215.0833,1071.6919 c 0,55.2284 -14.7716,45 -70,45 -55.2285,0 -70,10.2284 -70,-45 0,-32.3796 6.4569,-55.7423 30,-100.00002 5.7188,-10.75073 1.5251,-20.90577 5,-30 6.6196,-17.32445 20.0165,-30 35,-30 14.1195,0 28.2611,12.95123 35,30 3.6625,9.26596 -0.8596,19.76805 5,30 25.5298,44.58012 30,66.56502 30,100.00002 z" inkscape:path-effect="#path-effect6167" id="path6155" d="m -1215.0833,1071.6919 c -3.4382,14.5755 -13.914,26.9413 -26.86,34.4692 -12.946,7.528 -28.1644,10.5308 -43.14,10.5308 -14.9756,0 -30.194,-3.0028 -43.14,-10.5308 -12.946,-7.5279 -23.4218,-19.8937 -26.86,-34.4692 -2.032,-8.6142 -1.5878,-17.6856 0.3357,-26.3247 1.9234,-8.6391 5.2881,-16.8938 9.0744,-24.8937 7.5724,-15.9998 16.9906,-31.45011 20.5899,-48.78162 2.0633,-9.93505 2.1518,-20.26092 5,-30 2.3137,-7.91113 6.5095,-15.36542 12.6039,-20.91487 6.0945,-5.54945 14.1536,-9.08513 22.3961,-9.08513 8.2425,0 16.3016,3.53568 22.3961,9.08513 6.0944,5.54945 10.2902,13.00374 12.6039,20.91487 2.8482,9.73908 2.9367,20.06495 5,30 3.5993,17.33151 13.0175,32.78182 20.5899,48.78162 3.7863,7.9999 7.151,16.2546 9.0744,24.8937 1.9235,8.6391 2.3677,17.7105 0.3357,26.3247" style="color:black;fill:#0a0d10;fill-opacity:1;fill-rule:nonzero;stroke:none;stroke-width:25;marker:none;visibility:visible;display:inline;overflow:visible;enable-background:accumulate" />
      <path style="color:black;fill:#fcf9ee;fill-opacity:1;fill-rule:nonzero;stroke:none;stroke-width:25;marker:none;visibility:visible;display:inline;overflow:visible;enable-background:accumulate" d="m -1236.9447,1075.7456 c -2.3645,10.0235 -9.5686,18.5274 -18.4715,23.7043 -8.9028,5.1769 -19.3685,7.242 -29.6671,7.242 -10.2986,0 -20.7643,-2.065 -29.6672,-7.242 -8.9029,-5.1769 -16.107,-13.6808 -18.4715,-23.7043 -1.3974,-5.924 -1.0919,-12.1623 0.2308,-18.1034 1.3228,-5.9411 3.6366,-11.6178 6.2404,-17.1193 5.2076,-11.003 11.6844,-21.6281 14.1596,-33.5469 1.4189,-6.8323 1.4798,-13.93332 3.4385,-20.63084 1.5911,-5.44046 4.4765,-10.56674 8.6677,-14.38307 4.1911,-3.81634 9.7334,-6.2478 15.4017,-6.24779 5.6683,10e-6 11.2105,2.43149 15.4016,6.24782 4.1912,3.81633 7.0766,8.9426 8.6677,14.38304 1.9587,6.69752 2.0196,13.79854 3.4385,20.63084 2.4752,11.9188 8.952,22.5439 14.1596,33.5469 2.6038,5.5015 4.9176,11.1782 6.2404,17.1193 1.3227,5.9411 1.6282,12.1794 0.2308,18.1034" id="path6157" inkscape:path-effect="#path-effect6169" inkscape:original-d="m -1236.9447,1075.7456 c 0,37.9803 -10.1583,30.9463 -48.1386,30.9463 -37.9804,0 -48.1387,7.034 -48.1387,-30.9463 0,-22.2673 4.4404,-38.3337 20.6308,-68.7696 3.9329,-7.3932 1.0489,-14.37677 3.4385,-20.63084 4.5523,-11.91394 13.7653,-20.63086 24.0694,-20.63086 9.7099,0 19.435,8.9065 24.0693,20.63086 2.5187,6.37217 -0.5911,13.5944 3.4385,20.63084 17.5568,30.6576 20.6308,45.7765 20.6308,68.7696 z" inkscape:connector-curvature="0" sodipodi:nodetypes="sssssssss" />
      <path inkscape:connector-curvature="0" id="path6160" d="m -1285.2693,957.66974 c -8.8304,0 -16.7782,3.84406 -22.2203,9.95964 5.4421,6.11558 13.3899,9.95964 22.2203,9.95964 8.8304,0 16.7438,-3.84406 22.186,-9.95964 -5.4422,-6.11558 -13.3556,-9.95964 -22.186,-9.95964 z" style="color:black;fill:#f7d900;fill-opacity:1;fill-rule:nonzero;stroke:none;stroke-width:25;marker:none;visibility:visible;display:inline;overflow:visible;enable-background:accumulate" />
      <path id="path6162" d="m -1327.5833,1086.6919 c -6.3554,0 -12.2182,2.1609 -16.875,5.7812 4.5385,5.458 10.1173,10.1215 16.25,13.6875 8.609,5.0061 18.2145,7.986 28.0937,9.4375 0.024,-0.4687 0.031,-0.9316 0.031,-1.4062 0,-15.1879 -12.3122,-27.5 -27.5,-27.5 z m 85,0 c -15.1879,0 -27.5,12.3121 -27.5,27.5 0,0.4746 0.01,0.9375 0.031,1.4062 9.8791,-1.4515 19.4847,-4.4314 28.0937,-9.4375 6.1327,-3.566 11.7115,-8.2295 16.25,-13.6875 -4.6569,-3.6203 -10.5197,-5.7812 -16.875,-5.7812 z" style="color:black;fill:#f7d900;fill-opacity:1;fill-rule:nonzero;stroke:none;stroke-width:25;marker:none;visibility:visible;display:inline;overflow:visible;enable-background:accumulate" inkscape:connector-curvature="0" />
      <path sodipodi:nodetypes="scscs" inkscape:connector-curvature="0" id="path6165" d="m -1285.2693,957.66974 c -12.1736,0.4489 -17.9049,5.69392 -22.2187,9.96875 5.1534,4.2827 15.1837,6.0625 22.4062,6.0625 7.2225,0 16.8549,-1.7798 22,-6.0625 -4.4251,-5.41128 -13.4785,-10.28989 -22.1875,-9.96875 z" style="color:black;fill:#ffea45;fill-opacity:1;fill-rule:nonzero;stroke:none;stroke-width:25;marker:none;visibility:visible;display:inline;overflow:visible;enable-background:accumulate" />
      <rect style="fill:#e6eef0;fill-opacity:1;stroke:none" id="rect7018" width="512" height="512" x="0" y="540.36218" inkscape:export-filename="/media/Work/Land of Colors/Creation/Dribbble/Linux 2014/Linux_2014.png" inkscape:export-xdpi="90" inkscape:export-ydpi="90" />
      <g transform="matrix(0.95081301,0,0,1.0517315,-1482.1086,379.12905)" style="font-size:75.40331268px;font-style:normal;font-variant:normal;font-weight:normal;font-stretch:normal;text-align:start;line-height:125%;writing-mode:lr-tb;text-anchor:start;color:black;fill:#2c3d50;fill-opacity:1;stroke:none;stroke-width:2;marker:none;visibility:visible;display:inline;overflow:visible;enable-background:accumulate;font-family:Pacifico;-inkscape-font-specification:Pacifico" id="text7044">
         <path d="m 185.54937,862.30487 c 0.3191,-0.2209 0.8591,-0.57681 1.62,-1.06773 0.76091,-0.51543 1.65681,-1.1168 2.68771,-1.80408 1.03091,-0.68725 2.13545,-1.43589 3.31362,-2.2459 1.20272,-0.83452 2.3809,-1.66906 3.53453,-2.50362 l 0.29455,-2.50363 c 0.53999,-5.1545 1.41135,-9.87947 2.61408,-14.17494 1.20271,-4.31994 2.61407,-8.21037 4.23407,-11.67131 1.64453,-3.48539 3.42406,-6.52901 5.33861,-9.13087 1.93907,-2.60175 3.90269,-4.77401 5.89089,-6.51679 2.01269,-1.7672 3.98859,-3.08038 5.9277,-3.93953 1.9636,-0.88357 3.79222,-1.32538 5.48589,-1.32545 1.22723,7e-5 2.35631,0.23325 3.38725,0.69954 1.03087,0.46643 1.9145,1.16597 2.6509,2.09863 0.73632,0.93279 1.31314,2.09869 1.73045,3.49771 0.41723,1.39915 0.62586,3.03141 0.62591,4.8968 -5e-5,2.28277 -0.34368,4.67594 -1.03091,7.17951 -0.68731,2.50368 -1.66912,5.03185 -2.94544,7.58452 -1.25185,2.55275 -2.76139,5.10547 -4.52862,7.65815 -1.7673,2.5282 -3.73092,4.97046 -5.89088,7.32678 -2.13547,2.35638 -4.45501,4.59001 -6.95861,6.70088 -2.4791,2.08638 -5.05636,3.95182 -7.73178,5.59634 -0.0491,1.49728 -0.0982,2.68773 -0.14728,3.57135 -0.0246,0.8591 -0.0491,1.52182 -0.0736,1.98817 -2e-5,0.44183 -2e-5,0.74865 0,0.92045 -2e-5,0.17183 -2e-5,0.30683 0,0.405 -2e-5,0.22092 0.0368,0.42955 0.11045,0.62591 0.0982,0.17182 0.26999,0.3191 0.51545,0.44182 0.26999,0.0982 0.6259,0.18409 1.06773,0.25772 0.4418,0.0491 1.03088,0.0736 1.76726,0.0736 1.10452,0 2.58952,-0.26999 4.45498,-0.81 l 15.30879,-4.45898 c 0.19633,-0.0491 0.39269,-0.0859 0.58909,-0.11045 0.19633,-0.0245 0.38042,-0.0368 0.55227,-0.0368 0.6136,1e-5 1.14132,0.12274 1.58317,0.36818 0.44178,0.22092 0.80996,0.52773 1.10455,0.92045 0.2945,0.39274 0.51541,0.84682 0.66272,1.36227 0.14723,0.51546 0.22087,1.04318 0.22091,1.58317 -4e-5,0.49092 -0.0737,0.96955 -0.22091,1.4359 -0.14731,0.46637 -0.36822,0.90819 -0.66272,1.32545 -0.29459,0.39273 -0.66277,0.73637 -1.10455,1.03091 -0.44185,0.29455 -0.9573,0.49091 -1.54635,0.58909 -2.40548,0.95727 -7.83476,2.7408 -10.33836,3.50171 -1.08002,0.31909 -2.22138,0.6259 -3.42407,0.92045 -1.1782,0.31909 -2.3932,0.58909 -3.64499,0.81 -1.22728,0.24545 -2.4791,0.44181 -3.75544,0.58908 -1.25182,0.14727 -2.46682,0.22091 -3.64498,0.22091 -1.81637,0 -3.31363,-0.31909 -4.4918,-0.95727 -1.15364,-0.61363 -2.07409,-1.44817 -2.76135,-2.50362 -0.66273,-1.08 -1.12909,-2.31953 -1.39909,-3.71862 -0.27,-1.39908 -0.405,-2.88407 -0.40499,-4.45498 -2.11091,1.54636 -3.90272,2.77363 -5.37544,3.6818 -1.47271,0.90818 -2.41771,1.36227 -2.83498,1.36227 -0.41727,0 -0.81,-0.135 -1.17818,-0.405 -0.39272,-0.29454 -0.74863,-0.67499 -1.06772,-1.14136 -0.31909,-0.46636 -0.56454,-0.98181 -0.73636,-1.54636 -0.19636,-0.58908 -0.29454,-1.16589 -0.29455,-1.73045 1e-5,-0.46635 0.0614,-0.92044 0.18409,-1.36226 0.0982,-0.46635 0.34364,-0.83453 0.73636,-1.10454 m 20.91264,-12.92313 c 1.2518,-1.30088 2.5527,-2.71223 3.90271,-4.23407 1.37452,-1.54633 2.72451,-3.15405 4.04998,-4.82316 1.34997,-1.6936 2.6386,-3.41177 3.8659,-5.15453 1.25178,-1.76722 2.36859,-3.52221 3.35044,-5.26497 1.00632,-1.74268 1.84087,-3.43631 2.50362,-5.08089 0.68724,-1.64449 1.12905,-3.20312 1.32545,-4.67589 0.0736,-0.49085 0.12269,-0.95721 0.14727,-1.39909 0.0245,-0.4663 0.0368,-0.89584 0.0368,-1.28863 -3e-5,-1.39902 -0.1964,-2.41765 -0.58909,-3.05589 -0.36821,-0.63812 -0.88366,-0.95721 -1.54635,-0.95727 -0.78549,6e-5 -1.70594,0.41733 -2.76136,1.25181 -1.05547,0.81006 -2.16001,1.97596 -3.31362,3.49771 -1.15365,1.52187 -2.31956,3.36277 -3.49771,5.52271 -1.1782,2.16004 -2.27047,4.56548 -3.2768,7.21633 -1.00638,2.65094 -1.89001,5.53501 -2.6509,8.65224 -0.73638,3.11729 -1.25183,6.38182 -1.54636,9.79359" style="line-height:125%;fill:#2c3d50;marker:none;font-family:Pacifico;-inkscape-font-specification:Pacifico" id="path6992" inkscape:connector-curvature="0" sodipodi:nodetypes="cccccccccccccccccccccccccccccsccccccccccccccccsccscsscscccccccccccccccccsscc" />
         <path d="m 250.85267,866.50212 c -0.88366,0.81 -1.9882,1.68136 -3.31362,2.61408 -1.30093,0.90818 -2.71228,1.755 -4.23408,2.54044 -1.52182,0.76091 -3.08045,1.39909 -4.67588,1.91454 -1.57092,0.51545 -3.06818,0.77318 -4.4918,0.77318 -1.27637,0 -2.35636,-0.17182 -3.23999,-0.51545 -0.85909,-0.36818 -1.55863,-0.87136 -2.09863,-1.50954 -0.54,-0.63818 -0.93272,-1.41136 -1.17817,-2.31954 -0.22091,-0.93271 -0.33137,-1.95135 -0.33137,-3.05589 0,-1.54635 0.17182,-3.33816 0.51546,-5.37543 0.36817,-2.0618 0.80999,-4.18497 1.32545,-6.36952 0.51544,-2.20906 1.05544,-4.40587 1.61999,-6.59043 0.58908,-2.18451 1.10453,-4.19722 1.54636,-6.03815 0.1718,-0.63815 0.51544,-1.17815 1.0309,-1.62 0.51544,-0.46632 1.09226,-0.8345 1.73045,-1.10454 0.66271,-0.29451 1.33771,-0.50314 2.02499,-0.6259 0.7118,-0.14724 1.34998,-0.22088 1.91454,-0.22091 1.03088,3e-5 1.73043,0.1964 2.09862,0.58909 0.36817,0.36821 0.55226,0.87139 0.55227,1.50953 -1e-5,0.54004 -0.12274,1.32549 -0.36818,2.35636 -0.24547,1.00639 -0.55228,2.16002 -0.92045,3.46089 -0.36819,1.27639 -0.76092,2.6632 -1.17817,4.16044 -0.41729,1.47274 -0.81001,2.95773 -1.17818,4.45498 -0.36819,1.47274 -0.67501,2.92091 -0.92045,4.34453 -0.24547,1.39909 -0.36819,2.66318 -0.36818,3.79225 -1e-5,1.10455 0.12271,1.98819 0.36818,2.6509 0.24544,0.63819 0.74862,0.95728 1.50954,0.95727 0.88361,10e-6 1.86543,-0.30681 2.94544,-0.92045 1.07998,-0.61363 2.17224,-1.34999 3.2768,-2.20908 1.10452,-0.88362 2.18452,-1.7918 3.23999,-2.72454 1.05542,-0.93271 1.98815,-1.73043 2.79817,-2.39317 l 0,7.47406 m -16.45766,-37.84893 c -1e-5,-0.56449 0.12272,-1.20267 0.36818,-1.91453 0.24545,-0.71177 0.63817,-1.37449 1.17818,-1.98818 0.56453,-0.63813 1.30089,-1.16585 2.20908,-1.58317 0.93271,-0.44177 2.08634,-0.66268 3.4609,-0.66273 0.85906,5e-5 1.66906,0.0982 2.42999,0.29455 0.76088,0.19641 1.4236,0.50323 1.98817,0.92045 0.56452,0.39277 1.00633,0.9205 1.32545,1.58317 0.34361,0.66278 0.51543,1.44823 0.51545,2.35636 -2e-5,0.83458 -0.13502,1.64458 -0.405,2.42999 -0.27002,0.78549 -0.69956,1.48503 -1.28863,2.09862 -0.58911,0.61368 -1.33774,1.11686 -2.2459,1.50954 -0.88365,0.36822 -1.95137,0.55231 -3.20317,0.55227 -2.16,4e-5 -3.75545,-0.50314 -4.78634,-1.50954 -1.03092,-1.03086 -1.54637,-2.39312 -1.54636,-4.0868" style="line-height:125%;fill:#2c3d50;marker:none;font-family:Pacifico;-inkscape-font-specification:Pacifico" id="path6994" inkscape:connector-curvature="0" />
         <path d="m 248.20177,866.64939 c 0,-1.61998 0.0982,-3.48543 0.29455,-5.59634 0.19636,-2.13543 0.44181,-4.29541 0.73636,-6.47997 0.29454,-2.20906 0.6259,-4.33223 0.99409,-6.36952 0.36817,-2.03723 0.72408,-3.77995 1.06772,-5.22816 0.26999,-1.12905 0.78544,-2.07404 1.54636,-2.83498 0.78544,-0.76087 1.84089,-1.14133 3.16635,-1.14136 1.32543,3e-5 2.24588,0.40503 2.76135,1.21499 0.51543,0.81003 0.77316,1.89003 0.77318,3.23999 -2e-5,0.36821 -0.0368,0.87139 -0.11046,1.50954 -0.0736,0.61366 -0.17183,1.30093 -0.29454,2.06181 -0.0982,0.73638 -0.20865,1.50956 -0.33137,2.31953 -0.12274,0.78548 -0.24546,1.52184 -0.36818,2.20908 -0.0982,0.66275 -0.1841,1.25184 -0.25772,1.76727 -0.0736,0.49093 -0.11047,0.82229 -0.11046,0.99409 l 0.73636,0 c 0.14726,-0.26998 0.38044,-0.69953 0.69955,-1.28864 0.31907,-0.61361 0.68725,-1.31315 1.10454,-2.09862 0.41725,-0.78543 0.85907,-1.6077 1.32545,-2.46681 0.49089,-0.88361 0.94497,-1.71815 1.36226,-2.50363 0.41725,-0.80996 0.79771,-1.52178 1.14136,-2.13544 0.34362,-0.6136 0.60134,-1.06769 0.77318,-1.36227 0.78543,-1.32541 1.68133,-2.23359 2.68772,-2.72453 1.00633,-0.49087 2.12314,-0.73633 3.35044,-0.73636 1.22724,3e-5 2.19678,0.51548 2.90862,1.54635 0.73633,1.03094 1.10451,2.45457 1.10454,4.2709 -3e-5,0.27002 -0.0614,0.72411 -0.18409,1.36226 -0.0982,0.63821 -0.23321,1.39911 -0.405,2.28272 -0.17185,0.88366 -0.36821,1.8532 -0.58909,2.90862 -0.19639,1.05548 -0.38048,2.13547 -0.55227,3.23999 -0.17184,1.10456 -0.31911,2.19683 -0.44181,3.2768 -0.0982,1.08001 -0.1473,2.0741 -0.14727,2.98226 -3e-5,1.52183 0.18406,2.77364 0.55227,3.75544 0.39269,0.98182 0.99405,1.47273 1.80408,1.47272 0.36815,10e-6 0.78542,-0.11044 1.25181,-0.33136 0.49088,-0.2209 1.00633,-0.50317 1.54636,-0.84681 0.56451,-0.36817 1.12905,-0.78544 1.69363,-1.25182 0.58905,-0.46635 1.16587,-0.94498 1.73045,-1.4359 1.30086,-1.15362 2.66313,-2.45452 4.0868,-3.90271 l 0.6259,8.24724 -1.8409,1.39908 c -1.0064,0.76091 -2.0373,1.52182 -3.09271,2.28272 -1.03094,0.76091 -2.11094,1.44818 -3.23999,2.06181 -1.12912,0.58909 -2.30729,1.08 -3.53453,1.47272 -1.2273,0.36818 -2.51593,0.55227 -3.86589,0.55227 -1.35002,0 -2.49138,-0.96954 -3.42408,-2.90862 -0.9082,-1.96363 -1.36229,-4.82316 -1.36226,-8.5786 -3e-5,-1.47271 0.0981,-3.05588 0.29454,-4.74953 0.19634,-1.71815 0.44179,-3.55905 0.73636,-5.5227 l -0.58909,0 -9.64632,19.14537 c -0.49092,1.00636 -1.04319,1.69363 -1.65681,2.06181 -0.61365,0.36818 -1.32546,0.55227 -2.13545,0.55227 -1.00636,0 -1.81636,-0.20863 -2.42999,-0.62591 -0.61364,-0.44181 -1.09227,-1.01863 -1.4359,-1.73044 -0.31909,-0.73636 -0.54,-1.55863 -0.66272,-2.46681 -0.0982,-0.93272 -0.14728,-1.88999 -0.14728,-2.87181" style="line-height:125%;fill:#2c3d50;marker:none;font-family:Pacifico;-inkscape-font-specification:Pacifico" id="path6996" inkscape:connector-curvature="0" />
         <path d="m 309.90878,841.39223 c -3e-5,0.66276 -0.0737,1.57093 -0.22091,2.72453 -0.1473,1.12912 -0.34367,2.38093 -0.58909,3.75544 -0.22094,1.35002 -0.46639,2.7491 -0.73636,4.19726 -0.27003,1.44819 -0.52775,2.79819 -0.77318,4.04998 -0.22094,1.25183 -0.40503,2.35637 -0.55227,3.31362 -0.1473,0.93274 -0.22094,1.58319 -0.22091,1.95136 -3e-5,0.68728 0.0122,1.32546 0.0368,1.91453 0.0245,0.56456 0.0981,1.06774 0.22091,1.50954 0.1227,0.41728 0.30679,0.74864 0.55227,0.99409 0.26997,0.22092 0.65042,0.33137 1.14136,0.33136 0.53997,10e-6 1.19042,-0.13499 1.95135,-0.405 0.78542,-0.26999 1.60769,-0.62589 2.46681,-1.06772 0.8836,-0.46635 1.7795,-0.9818 2.68772,-1.54636 0.90814,-0.58907 1.76722,-1.20271 2.57726,-1.8409 0.8345,-0.63816 1.58313,-1.26407 2.2459,-1.87772 0.68722,-0.63816 1.23949,-1.22725 1.65681,-1.76726 -4e-5,0.81001 -4e-5,1.54637 0,2.20908 0.0245,0.66274 0.0368,1.30092 0.0368,1.91454 -5e-5,0.5891 -5e-5,1.20273 0,1.8409 0.0245,0.63819 0.0368,1.35 0.0368,2.13544 -0.54005,0.54001 -1.21504,1.11682 -2.025,1.73045 -0.78549,0.61364 -1.66912,1.22727 -2.65089,1.8409 -0.95731,0.61364 -1.98821,1.20273 -3.09272,1.76727 -1.08003,0.56454 -2.1723,1.06772 -3.2768,1.50954 -1.10457,0.41727 -2.19684,0.7609 -3.27681,1.0309 -1.08002,0.24545 -2.08638,0.36818 -3.01907,0.36818 -0.93275,0 -1.73048,-0.18409 -2.39317,-0.55227 -0.66275,-0.36818 -1.23957,-0.88363 -1.73045,-1.54636 -0.46639,-0.66272 -0.87138,-1.44817 -1.215,-2.35635 -0.31911,-0.93272 -0.60138,-1.96362 -0.84681,-3.09271 -0.88365,1.15363 -1.81638,2.22136 -2.79817,3.20316 -0.98183,0.95728 -1.98819,1.79182 -3.01908,2.50363 -1.00637,0.71182 -2.03728,1.27636 -3.09271,1.69363 -1.03092,0.39272 -2.03728,0.58909 -3.01908,0.58909 -0.81001,0 -1.57091,-0.135 -2.28272,-0.405 -0.71182,-0.27 -1.35,-0.72409 -1.91454,-1.36227 -0.54,-0.63818 -0.96954,-1.47272 -1.28863,-2.50362 -0.31909,-1.05545 -0.47863,-2.35635 -0.47863,-3.90271 0,-1.88999 0.2209,-4.29543 0.66272,-7.21634 0.46636,-2.92088 1.0309,-6.25904 1.69363,-10.0145 0.0491,-0.36815 0.135,-0.85906 0.25773,-1.47272 0.14726,-0.63815 0.33135,-1.32542 0.55227,-2.06181 0.24545,-0.73633 0.53999,-1.48496 0.88363,-2.2459 0.34363,-0.76087 0.74863,-1.44814 1.215,-2.06181 0.46635,-0.6136 1.00635,-1.11678 1.61999,-1.50954 0.63817,-0.39269 1.34998,-0.60132 2.13544,-0.6259 1.30089,0.0491 2.23362,0.22094 2.79817,0.51545 0.56453,0.27003 0.8468,0.61367 0.84682,1.0309 -0.22092,1.30094 -0.46638,2.74911 -0.73636,4.34453 -0.24547,1.59547 -0.5032,3.20319 -0.77318,4.82316 -0.27001,1.62002 -0.52774,3.20319 -0.77318,4.74953 -0.24547,1.52183 -0.46637,2.88409 -0.66272,4.0868 -0.19638,1.20273 -0.35592,2.17227 -0.47864,2.90862 -0.0982,0.73637 -0.14728,1.11683 -0.14727,1.14136 -10e-6,0.44183 0.0368,0.87137 0.11046,1.28863 0.0982,0.39274 0.23316,0.74864 0.40499,1.06772 0.17181,0.3191 0.39272,0.57683 0.66273,0.77318 0.26998,0.19637 0.58907,0.29455 0.95727,0.29455 0.53998,0 1.09225,-0.135 1.65681,-0.405 0.56452,-0.29454 1.09225,-0.69954 1.58317,-1.215 0.51544,-0.53999 0.96952,-1.19044 1.36227,-1.95135 0.39271,-0.78544 0.68725,-1.66907 0.88363,-2.6509 L 301.367,841.1345 c 0.1227,-0.58905 0.61361,-1.07996 1.47272,-1.47272 0.8836,-0.41723 1.87769,-0.62587 2.98226,-0.6259 1.25178,3e-5 2.24587,0.22094 2.98226,0.66272 0.73633,0.44185 1.10451,1.00639 1.10454,1.69363" style="line-height:125%;fill:#2c3d50;marker:none;font-family:Pacifico;-inkscape-font-specification:Pacifico" id="path6998" inkscape:connector-curvature="0" />
         <path d="m 322.35325,857.62898 c -10e-6,0.71183 -0.0123,1.41137 -0.0368,2.09863 -0.0245,0.66274 -0.0368,1.28864 -0.0368,1.87772 0,0.5891 0.0245,1.1291 0.0736,1.61999 0.0491,0.46637 0.14726,0.87137 0.29454,1.215 0.17181,0.34364 0.39272,0.61364 0.66273,0.80999 0.29453,0.19637 0.68726,0.29456 1.17817,0.29455 0.26999,10e-6 0.56454,-0.15954 0.88364,-0.47864 0.34362,-0.31908 0.72407,-0.77317 1.14136,-1.36226 0.4418,-0.58908 0.93271,-1.28862 1.47272,-2.09863 0.53998,-0.80998 1.15361,-1.69362 1.8409,-2.6509 -0.76092,-1.76725 -1.50955,-3.68178 -2.2459,-5.74361 -0.73637,-2.08633 -1.46046,-4.35678 -2.17227,-6.81134 -0.0491,-0.14724 -0.0736,-0.26997 -0.0736,-0.36818 -10e-6,-0.44178 0.18408,-0.90814 0.55227,-1.39908 0.36817,-0.49088 0.83453,-0.94497 1.39908,-1.36227 0.58908,-0.41724 1.21499,-0.76087 1.87772,-1.0309 0.68726,-0.29451 1.33771,-0.44179 1.95136,-0.44182 0.49089,3e-5 0.90816,0.0859 1.25181,0.25773 0.36816,0.17185 0.63816,0.42957 0.81,0.77318 0.26998,0.63821 0.69952,1.66911 1.28863,3.09271 0.58907,1.42366 1.26406,3.03138 2.02499,4.82316 1.25179,-1.32542 2.6386,-2.6386 4.16044,-3.93953 1.52178,-1.32542 3.20314,-2.60177 5.04407,-3.82907 0.6136,-0.41724 1.19041,-0.71178 1.73044,-0.88363 0.53997,-0.17179 1.03087,-0.2577 1.47272,-0.25773 0.56451,3e-5 1.05542,0.12276 1.47272,0.36818 0.44179,0.22094 0.80997,0.52776 1.10455,0.92045 0.2945,0.39276 0.51541,0.84685 0.66272,1.36227 0.14723,0.51548 0.22087,1.0432 0.22091,1.58317 -4e-5,0.78548 -0.15958,1.54639 -0.47864,2.28272 -0.31912,0.71184 -0.81003,1.27638 -1.47272,1.69363 -1.91457,1.20274 -3.73092,2.55274 -5.44906,4.04998 -1.69366,1.47274 -3.31365,3.0191 -4.85998,4.63907 0.53997,1.08001 1.07997,2.09864 1.61999,3.0559 0.56452,0.95728 1.10451,1.79182 1.61999,2.50362 0.51543,0.71183 1.00633,1.27637 1.47272,1.69363 0.49088,0.39274 0.94497,0.5891 1.36227,0.58909 0.53997,1e-5 1.19042,-0.13499 1.95136,-0.405 0.78541,-0.26999 1.60768,-0.62589 2.4668,-1.06772 0.8836,-0.46635 1.7795,-0.9818 2.68772,-1.54636 0.90814,-0.58907 1.76722,-1.20271 2.57726,-1.8409 0.8345,-0.63816 1.58313,-1.26407 2.2459,-1.87772 0.68723,-0.63816 1.2395,-1.22725 1.65681,-1.76726 -4e-5,0.81001 -4e-5,1.54637 0,2.20908 0.0245,0.66274 0.0368,1.30092 0.0368,1.91454 -5e-5,0.5891 -5e-5,1.20273 0,1.8409 0.0245,0.63819 0.0368,1.35 0.0368,2.13544 -0.81004,0.81001 -1.85322,1.71818 -3.12953,2.72454 -1.2764,0.98182 -2.70003,1.91454 -4.2709,2.79817 -1.54639,0.85909 -3.2032,1.59545 -4.97043,2.20908 -1.76729,0.58909 -3.53456,0.88363 -5.30179,0.88363 -1.00639,0 -2.28275,-0.675 -3.82908,-2.02499 -1.52183,-1.37454 -3.16637,-3.58362 -4.93361,-6.62725 -1.05547,1.22728 -2.06183,2.36864 -3.01908,3.42408 -0.95728,1.03091 -1.85319,1.93909 -2.68772,2.72453 -0.83455,0.78546 -1.62,1.39909 -2.35635,1.84091 -0.73637,0.44181 -1.41137,0.66272 -2.02499,0.66272 -1.22728,0 -2.23364,-0.31909 -3.01908,-0.95727 -0.78546,-0.63818 -1.42363,-1.44817 -1.91454,-2.42999 -0.46636,-1.00635 -0.81,-2.08635 -1.0309,-3.23998 -0.19637,-1.17817 -0.31909,-2.30726 -0.36818,-3.38726 l 5.37543,-7.1427" style="line-height:125%;fill:#2c3d50;marker:none;font-family:Pacifico;-inkscape-font-specification:Pacifico" id="path7000" inkscape:connector-curvature="0" />
      </g>
      <text xml:space="preserve" style="font-size:111.90065765px;font-style:normal;font-variant:normal;font-weight:normal;font-stretch:normal;text-align:start;line-height:125%;writing-mode:lr-tb;text-anchor:start;color:black;fill:#ff7e3e;fill-opacity:1;fill-rule:nonzero;stroke:none;stroke-width:3;marker:none;visibility:visible;display:inline;overflow:visible;enable-background:accumulate;font-family:Pacifico;-inkscape-font-specification:Pacifico" x="-1337.4844" y="1237.2264" id="text7119" sodipodi:linespacing="125%"><tspan sodipodi:role="line" id="tspan7121" x="-1337.4844" y="1237.2264">Linux</tspan></text>
      <rect y="540.36218" x="512" height="512" width="512" id="rect7179" style="fill:#2c3d50;fill-opacity:1;stroke:none" />
      <g id="g7197" style="font-size:75.40331268px;font-style:normal;font-variant:normal;font-weight:normal;font-stretch:normal;text-align:start;line-height:125%;writing-mode:lr-tb;text-anchor:start;color:black;fill:#fcf9ee;fill-opacity:1;stroke:none;stroke-width:2;marker:none;visibility:visible;display:inline;overflow:visible;enable-background:accumulate;font-family:Pacifico;-inkscape-font-specification:Pacifico" transform="matrix(0.95081301,0,0,1.0517315,509.15878,17.090367)">
         <path style="line-height:125%;fill:#fcf9ee;fill-opacity:1;marker:none;font-family:Pacifico;-inkscape-font-specification:Pacifico" inkscape:path-effect="#path-effect6211" inkscape:original-d="m 190.78924,852.42536 c 1.24125,-13.39066 5.93545,-27.59215 14.02837,-38.55781 4.06304,-5.23373 9.37293,-10.54763 16.29917,-11.27824 3.9489,-0.48992 7.50423,2.5 8.41005,6.27515 2.01079,8.38029 -1.42886,14.38261 -5.70754,21.44735 -5.62314,9.28465 -24.96516,27.77962 -24.96516,27.77962 0,0 -0.12159,3.93906 -0.25304,5.60302 -0.13144,1.66397 0.37678,2.9061 2.09763,3.17585 2.2103,0.34648 4.37115,1.72286 6.50677,1.10572 2.13563,-0.61712 9.63776,-4.15215 11.74719,-4.72013 5.22154,-1.40593 4.95927,-2.20318 10.17655,-3.59305 3.52607,-0.62492 5.19961,4.0862 3.44707,6.64107 -1.71435,2.4335 -4.96799,2.69535 -7.62114,3.63794 -6.9084,2.45436 -14.0056,4.66819 -21.28455,5.83609 -4.09251,0.58957 -7.09753,0.99272 -10.08302,-2.66815 -1.86586,-2.28796 -2.87191,-8.25308 -3.77946,-9.58021 -1.39142,0.53691 -2.93235,2.25612 -4.48415,3.8342 -1.5518,1.57808 -3.11445,3.01503 -4.5493,2.98741 -3.20778,-0.0617 -5.88327,-2.95412 -3.93672,-4.51662 1.80044,-1.33368 4.32958,-5.85146 6.21315,-7.09204 1.88358,-1.24059 5.91702,-4.99186 7.73813,-6.31717 z m 27.88493,-26.41274 c 1.24791,-3.34574 4.1599,-11.8498 1.34439,-14.54307 -2.64586,-2.53098 -7.59839,3.35529 -9.28244,5.71537 -6.2764,8.79592 -9.79567,29.22551 -9.79567,29.22551 4.13574,-2.90694 7.74101,-7.57241 10.81739,-11.49044 3.07637,-3.91803 4.89613,-4.23616 6.91633,-8.90737 z" id="path7199" d="m 190.78924,852.42536 c 1.96932,-13.63202 6.77742,-26.84739 14.02837,-38.55781 1.84111,-2.97343 3.8772,-5.8943 6.59799,-8.09164 1.3604,-1.09866 2.88582,-2.00566 4.53649,-2.58277 1.65066,-0.57711 3.42927,-0.81841 5.16469,-0.60383 1.81216,0.22407 3.55634,0.94694 5.01383,2.04688 1.45749,1.09993 2.62713,2.57218 3.39622,4.22827 0.81929,1.76418 1.1838,3.72392 1.16516,5.66897 -0.0186,1.94505 -0.41366,3.87648 -1.05455,5.71301 -1.28177,3.67305 -3.515,6.93013 -5.81815,10.06537 -7.38253,10.04973 -15.75813,19.36955 -24.96516,27.77962 -0.73372,1.7615 -0.825,3.78256 -0.25304,5.60302 0.3861,1.2289 1.08322,2.38197 2.09763,3.17585 0.89274,0.69865 1.9984,1.09466 3.1222,1.24354 1.1238,0.14888 2.26837,0.0602 3.38457,-0.13782 4.16907,-0.73942 7.90068,-2.9503 11.74719,-4.72013 3.27267,-1.5058 6.68393,-2.71022 10.17655,-3.59305 1.471,0.1463 2.84124,1.07486 3.52226,2.3869 0.68102,1.31204 0.65177,2.96701 -0.0752,4.25417 -0.71579,1.26738 -2.01511,2.11433 -3.37963,2.62097 -1.36453,0.50664 -2.81713,0.71736 -4.24151,1.01697 -7.21808,1.5183 -13.92313,5.37209 -21.28455,5.83609 -1.77551,0.11191 -3.57261,0.0206 -5.30265,-0.39399 -1.73004,-0.41462 -3.39353,-1.15988 -4.78037,-2.27416 -1.39988,-1.12475 -2.50034,-2.61877 -3.15934,-4.28923 -0.65901,-1.67046 -0.87501,-3.51341 -0.62012,-5.29098 -1.60757,1.13761 -3.11065,2.42283 -4.48415,3.8342 -0.64898,0.66688 -1.27293,1.36532 -2.01028,1.93296 -0.73735,0.56764 -1.60985,1.00402 -2.53902,1.05445 -0.56469,0.0307 -1.13539,-0.0839 -1.64912,-0.32029 -0.51374,-0.23642 -0.97016,-0.59352 -1.3316,-1.02846 -0.72289,-0.86987 -1.04715,-2.04051 -0.956,-3.16787 0.0657,-0.81325 0.33678,-1.60322 0.73751,-2.31393 0.40073,-0.71071 0.92904,-1.34442 1.51917,-1.90784 1.18027,-1.12683 2.59581,-1.96951 3.95647,-2.87027 2.7811,-1.8411 5.37765,-3.96084 7.73813,-6.31717 m 27.88493,-26.41274 c 1.77428,-2.23557 3.67441,-4.5193 4.34419,-7.29368 0.33489,-1.3872 0.33593,-2.87735 -0.1585,-4.21601 -0.49444,-1.33865 -1.51456,-2.50783 -2.8413,-3.03338 -0.92394,-0.36599 -1.96035,-0.41095 -2.93118,-0.19856 -0.97083,0.21238 -1.87757,0.67413 -2.66885,1.27537 -1.58256,1.20249 -2.68336,2.92031 -3.68241,4.63856 -5.20015,8.94367 -8.55555,18.95454 -9.79567,29.22551 3.88239,-3.55659 7.50133,-7.40069 10.81739,-11.49044 2.36757,-2.91996 4.57938,-5.96284 6.91633,-8.90737" inkscape:connector-curvature="0" sodipodi:nodetypes="cccssccsssccscscsscsccsscsc" />
         <path inkscape:connector-curvature="0" id="path7201" style="line-height:125%;fill:#fcf9ee;fill-opacity:1;marker:none;font-family:Pacifico;-inkscape-font-specification:Pacifico" d="m 250.85267,866.50212 c -0.88366,0.81 -1.9882,1.68136 -3.31362,2.61408 -1.30093,0.90818 -2.71228,1.755 -4.23408,2.54044 -1.52182,0.76091 -3.08045,1.39909 -4.67588,1.91454 -1.57092,0.51545 -3.06818,0.77318 -4.4918,0.77318 -1.27637,0 -2.35636,-0.17182 -3.23999,-0.51545 -0.85909,-0.36818 -1.55863,-0.87136 -2.09863,-1.50954 -0.54,-0.63818 -0.93272,-1.41136 -1.17817,-2.31954 -0.22091,-0.93271 -0.33137,-1.95135 -0.33137,-3.05589 0,-1.54635 0.17182,-3.33816 0.51546,-5.37543 0.36817,-2.0618 0.80999,-4.18497 1.32545,-6.36952 0.51544,-2.20906 1.05544,-4.40587 1.61999,-6.59043 0.58908,-2.18451 1.10453,-4.19722 1.54636,-6.03815 0.1718,-0.63815 0.51544,-1.17815 1.0309,-1.62 0.51544,-0.46632 1.09226,-0.8345 1.73045,-1.10454 0.66271,-0.29451 1.33771,-0.50314 2.02499,-0.6259 0.7118,-0.14724 1.34998,-0.22088 1.91454,-0.22091 1.03088,3e-5 1.73043,0.1964 2.09862,0.58909 0.36817,0.36821 0.55226,0.87139 0.55227,1.50953 -1e-5,0.54004 -0.12274,1.32549 -0.36818,2.35636 -0.24547,1.00639 -0.55228,2.16002 -0.92045,3.46089 -0.36819,1.27639 -0.76092,2.6632 -1.17817,4.16044 -0.41729,1.47274 -0.81001,2.95773 -1.17818,4.45498 -0.36819,1.47274 -0.67501,2.92091 -0.92045,4.34453 -0.24547,1.39909 -0.36819,2.66318 -0.36818,3.79225 -1e-5,1.10455 0.12271,1.98819 0.36818,2.6509 0.24544,0.63819 0.74862,0.95728 1.50954,0.95727 0.88361,10e-6 1.86543,-0.30681 2.94544,-0.92045 1.07998,-0.61363 2.17224,-1.34999 3.2768,-2.20908 1.10452,-0.88362 2.18452,-1.7918 3.23999,-2.72454 1.05542,-0.93271 1.98815,-1.73043 2.79817,-2.39317 l 0,7.47406 m -16.45766,-37.84893 c -1e-5,-0.56449 0.12272,-1.20267 0.36818,-1.91453 0.24545,-0.71177 0.63817,-1.37449 1.17818,-1.98818 0.56453,-0.63813 1.30089,-1.16585 2.20908,-1.58317 0.93271,-0.44177 2.08634,-0.66268 3.4609,-0.66273 0.85906,5e-5 1.66906,0.0982 2.42999,0.29455 0.76088,0.19641 1.4236,0.50323 1.98817,0.92045 0.56452,0.39277 1.00633,0.9205 1.32545,1.58317 0.34361,0.66278 0.51543,1.44823 0.51545,2.35636 -2e-5,0.83458 -0.13502,1.64458 -0.405,2.42999 -0.27002,0.78549 -0.69956,1.48503 -1.28863,2.09862 -0.58911,0.61368 -1.33774,1.11686 -2.2459,1.50954 -0.88365,0.36822 -1.95137,0.55231 -3.20317,0.55227 -2.16,4e-5 -3.75545,-0.50314 -4.78634,-1.50954 -1.03092,-1.03086 -1.54637,-2.39312 -1.54636,-4.0868" />
         <path inkscape:connector-curvature="0" id="path7203" style="line-height:125%;fill:#fcf9ee;fill-opacity:1;marker:none;font-family:Pacifico;-inkscape-font-specification:Pacifico" d="m 248.20177,866.64939 c 0,-1.61998 0.0982,-3.48543 0.29455,-5.59634 0.19636,-2.13543 0.44181,-4.29541 0.73636,-6.47997 0.29454,-2.20906 0.6259,-4.33223 0.99409,-6.36952 0.36817,-2.03723 0.72408,-3.77995 1.06772,-5.22816 0.26999,-1.12905 0.78544,-2.07404 1.54636,-2.83498 0.78544,-0.76087 1.84089,-1.14133 3.16635,-1.14136 1.32543,3e-5 2.24588,0.40503 2.76135,1.21499 0.51543,0.81003 0.77316,1.89003 0.77318,3.23999 -2e-5,0.36821 -0.0368,0.87139 -0.11046,1.50954 -0.0736,0.61366 -0.17183,1.30093 -0.29454,2.06181 -0.0982,0.73638 -0.20865,1.50956 -0.33137,2.31953 -0.12274,0.78548 -0.24546,1.52184 -0.36818,2.20908 -0.0982,0.66275 -0.1841,1.25184 -0.25772,1.76727 -0.0736,0.49093 -0.11047,0.82229 -0.11046,0.99409 l 0.73636,0 c 0.14726,-0.26998 0.38044,-0.69953 0.69955,-1.28864 0.31907,-0.61361 0.68725,-1.31315 1.10454,-2.09862 0.41725,-0.78543 0.85907,-1.6077 1.32545,-2.46681 0.49089,-0.88361 0.94497,-1.71815 1.36226,-2.50363 0.41725,-0.80996 0.79771,-1.52178 1.14136,-2.13544 0.34362,-0.6136 0.60134,-1.06769 0.77318,-1.36227 0.78543,-1.32541 1.68133,-2.23359 2.68772,-2.72453 1.00633,-0.49087 2.12314,-0.73633 3.35044,-0.73636 1.22724,3e-5 2.19678,0.51548 2.90862,1.54635 0.73633,1.03094 1.10451,2.45457 1.10454,4.2709 -3e-5,0.27002 -0.0614,0.72411 -0.18409,1.36226 -0.0982,0.63821 -0.23321,1.39911 -0.405,2.28272 -0.17185,0.88366 -0.36821,1.8532 -0.58909,2.90862 -0.19639,1.05548 -0.38048,2.13547 -0.55227,3.23999 -0.17184,1.10456 -0.31911,2.19683 -0.44181,3.2768 -0.0982,1.08001 -0.1473,2.0741 -0.14727,2.98226 -3e-5,1.52183 0.18406,2.77364 0.55227,3.75544 0.39269,0.98182 0.99405,1.47273 1.80408,1.47272 0.36815,10e-6 0.78542,-0.11044 1.25181,-0.33136 0.49088,-0.2209 1.00633,-0.50317 1.54636,-0.84681 0.56451,-0.36817 1.12905,-0.78544 1.69363,-1.25182 0.58905,-0.46635 1.16587,-0.94498 1.73045,-1.4359 1.30086,-1.15362 2.66313,-2.45452 4.0868,-3.90271 l 0.6259,8.24724 -1.8409,1.39908 c -1.0064,0.76091 -2.0373,1.52182 -3.09271,2.28272 -1.03094,0.76091 -2.11094,1.44818 -3.23999,2.06181 -1.12912,0.58909 -2.30729,1.08 -3.53453,1.47272 -1.2273,0.36818 -2.51593,0.55227 -3.86589,0.55227 -1.35002,0 -2.49138,-0.96954 -3.42408,-2.90862 -0.9082,-1.96363 -1.36229,-4.82316 -1.36226,-8.5786 -3e-5,-1.47271 0.0981,-3.05588 0.29454,-4.74953 0.19634,-1.71815 0.44179,-3.55905 0.73636,-5.5227 l -0.58909,0 -9.64632,19.14537 c -0.49092,1.00636 -1.04319,1.69363 -1.65681,2.06181 -0.61365,0.36818 -1.32546,0.55227 -2.13545,0.55227 -1.00636,0 -1.81636,-0.20863 -2.42999,-0.62591 -0.61364,-0.44181 -1.09227,-1.01863 -1.4359,-1.73044 -0.31909,-0.73636 -0.54,-1.55863 -0.66272,-2.46681 -0.0982,-0.93272 -0.14728,-1.88999 -0.14728,-2.87181" />
         <path inkscape:connector-curvature="0" id="path7205" style="line-height:125%;fill:#fcf9ee;fill-opacity:1;marker:none;font-family:Pacifico;-inkscape-font-specification:Pacifico" d="m 309.90878,841.39223 c -3e-5,0.66276 -0.0737,1.57093 -0.22091,2.72453 -0.1473,1.12912 -0.34367,2.38093 -0.58909,3.75544 -0.22094,1.35002 -0.46639,2.7491 -0.73636,4.19726 -0.27003,1.44819 -0.52775,2.79819 -0.77318,4.04998 -0.22094,1.25183 -0.40503,2.35637 -0.55227,3.31362 -0.1473,0.93274 -0.22094,1.58319 -0.22091,1.95136 -3e-5,0.68728 0.0122,1.32546 0.0368,1.91453 0.0245,0.56456 0.0981,1.06774 0.22091,1.50954 0.1227,0.41728 0.30679,0.74864 0.55227,0.99409 0.26997,0.22092 0.65042,0.33137 1.14136,0.33136 0.53997,10e-6 1.19042,-0.13499 1.95135,-0.405 0.78542,-0.26999 1.60769,-0.62589 2.46681,-1.06772 0.8836,-0.46635 1.7795,-0.9818 2.68772,-1.54636 0.90814,-0.58907 1.76722,-1.20271 2.57726,-1.8409 0.8345,-0.63816 1.58313,-1.26407 2.2459,-1.87772 0.68722,-0.63816 1.23949,-1.22725 1.65681,-1.76726 -4e-5,0.81001 -4e-5,1.54637 0,2.20908 0.0245,0.66274 0.0368,1.30092 0.0368,1.91454 -5e-5,0.5891 -5e-5,1.20273 0,1.8409 0.0245,0.63819 0.0368,1.35 0.0368,2.13544 -0.54005,0.54001 -1.21504,1.11682 -2.025,1.73045 -0.78549,0.61364 -1.66912,1.22727 -2.65089,1.8409 -0.95731,0.61364 -1.98821,1.20273 -3.09272,1.76727 -1.08003,0.56454 -2.1723,1.06772 -3.2768,1.50954 -1.10457,0.41727 -2.19684,0.7609 -3.27681,1.0309 -1.08002,0.24545 -2.08638,0.36818 -3.01907,0.36818 -0.93275,0 -1.73048,-0.18409 -2.39317,-0.55227 -0.66275,-0.36818 -1.23957,-0.88363 -1.73045,-1.54636 -0.46639,-0.66272 -0.87138,-1.44817 -1.215,-2.35635 -0.31911,-0.93272 -0.60138,-1.96362 -0.84681,-3.09271 -0.88365,1.15363 -1.81638,2.22136 -2.79817,3.20316 -0.98183,0.95728 -1.98819,1.79182 -3.01908,2.50363 -1.00637,0.71182 -2.03728,1.27636 -3.09271,1.69363 -1.03092,0.39272 -2.03728,0.58909 -3.01908,0.58909 -0.81001,0 -1.57091,-0.135 -2.28272,-0.405 -0.71182,-0.27 -1.35,-0.72409 -1.91454,-1.36227 -0.54,-0.63818 -0.96954,-1.47272 -1.28863,-2.50362 -0.31909,-1.05545 -0.47863,-2.35635 -0.47863,-3.90271 0,-1.88999 0.2209,-4.29543 0.66272,-7.21634 0.46636,-2.92088 1.0309,-6.25904 1.69363,-10.0145 0.0491,-0.36815 0.135,-0.85906 0.25773,-1.47272 0.14726,-0.63815 0.33135,-1.32542 0.55227,-2.06181 0.24545,-0.73633 0.53999,-1.48496 0.88363,-2.2459 0.34363,-0.76087 0.74863,-1.44814 1.215,-2.06181 0.46635,-0.6136 1.00635,-1.11678 1.61999,-1.50954 0.63817,-0.39269 1.34998,-0.60132 2.13544,-0.6259 1.30089,0.0491 2.23362,0.22094 2.79817,0.51545 0.56453,0.27003 0.8468,0.61367 0.84682,1.0309 -0.22092,1.30094 -0.46638,2.74911 -0.73636,4.34453 -0.24547,1.59547 -0.5032,3.20319 -0.77318,4.82316 -0.27001,1.62002 -0.52774,3.20319 -0.77318,4.74953 -0.24547,1.52183 -0.46637,2.88409 -0.66272,4.0868 -0.19638,1.20273 -0.35592,2.17227 -0.47864,2.90862 -0.0982,0.73637 -0.14728,1.11683 -0.14727,1.14136 -10e-6,0.44183 0.0368,0.87137 0.11046,1.28863 0.0982,0.39274 0.23316,0.74864 0.40499,1.06772 0.17181,0.3191 0.39272,0.57683 0.66273,0.77318 0.26998,0.19637 0.58907,0.29455 0.95727,0.29455 0.53998,0 1.09225,-0.135 1.65681,-0.405 0.56452,-0.29454 1.09225,-0.69954 1.58317,-1.215 0.51544,-0.53999 0.96952,-1.19044 1.36227,-1.95135 0.39271,-0.78544 0.68725,-1.66907 0.88363,-2.6509 L 301.367,841.1345 c 0.1227,-0.58905 0.61361,-1.07996 1.47272,-1.47272 0.8836,-0.41723 1.87769,-0.62587 2.98226,-0.6259 1.25178,3e-5 2.24587,0.22094 2.98226,0.66272 0.73633,0.44185 1.10451,1.00639 1.10454,1.69363" />
         <path inkscape:connector-curvature="0" id="path7207" style="line-height:125%;fill:#fcf9ee;fill-opacity:1;marker:none;font-family:Pacifico;-inkscape-font-specification:Pacifico" d="m 322.31645,858.99704 c -0.0245,0.66274 -0.0368,1.28864 -0.0368,1.87772 0,0.5891 0.0245,1.1291 0.0736,1.61999 0.0491,0.46637 0.14726,0.87137 0.29454,1.215 0.17181,0.34364 0.39272,0.61364 0.66273,0.80999 0.29453,0.19637 0.68726,0.29456 1.17817,0.29455 0.26999,10e-6 0.56454,-0.15954 0.88364,-0.47864 0.34362,-0.31908 0.72407,-0.77317 1.14136,-1.36226 0.4418,-0.58908 0.93271,-1.28862 1.47272,-2.09863 0.53998,-0.80998 1.15361,-1.69362 1.8409,-2.6509 -0.76092,-1.76725 -1.50955,-3.68178 -2.2459,-5.74361 -0.73637,-2.08633 -1.46046,-4.35678 -2.17227,-6.81134 -0.0491,-0.14724 -0.0736,-0.26997 -0.0736,-0.36818 -10e-6,-0.44178 0.18408,-0.90814 0.55227,-1.39908 0.36817,-0.49088 0.83453,-0.94497 1.39908,-1.36227 0.58908,-0.41724 1.21499,-0.76087 1.87772,-1.0309 0.68726,-0.29451 1.33771,-0.44179 1.95136,-0.44182 0.49089,3e-5 0.90816,0.0859 1.25181,0.25773 0.36816,0.17185 0.63816,0.42957 0.81,0.77318 0.26998,0.63821 0.69952,1.66911 1.28863,3.09271 0.58907,1.42366 1.26406,3.03138 2.02499,4.82316 1.25179,-1.32542 2.6386,-2.6386 4.16044,-3.93953 1.52178,-1.32542 3.20314,-2.60177 5.04407,-3.82907 0.6136,-0.41724 1.19041,-0.71178 1.73044,-0.88363 0.53997,-0.17179 1.03087,-0.2577 1.47272,-0.25773 0.56451,3e-5 1.05542,0.12276 1.47272,0.36818 0.44179,0.22094 0.80997,0.52776 1.10455,0.92045 0.2945,0.39276 0.51541,0.84685 0.66272,1.36227 0.14723,0.51548 0.22087,1.0432 0.22091,1.58317 -4e-5,0.78548 -0.15958,1.54639 -0.47864,2.28272 -0.31912,0.71184 -0.81003,1.27638 -1.47272,1.69363 -1.91457,1.20274 -3.73092,2.55274 -5.44906,4.04998 -1.69366,1.47274 -3.31365,3.0191 -4.85998,4.63907 0.53997,1.08001 1.07997,2.09864 1.61999,3.0559 0.56452,0.95728 1.10451,1.79182 1.61999,2.50362 0.51543,0.71183 1.00633,1.27637 1.47272,1.69363 0.49088,0.39274 0.94497,0.5891 1.36227,0.58909 0.53997,10e-6 1.19042,-0.13499 1.95136,-0.405 0.78541,-0.26999 1.60768,-0.62589 2.4668,-1.06772 0.8836,-0.46635 1.7795,-0.9818 2.68772,-1.54636 0.90814,-0.58907 1.76722,-1.20271 2.57726,-1.8409 0.8345,-0.63816 1.58313,-1.26407 2.2459,-1.87772 0.68723,-0.63816 1.2395,-1.22725 1.65681,-1.76726 -4e-5,0.81001 -4e-5,1.54637 0,2.20908 0.0245,0.66274 0.0368,1.30092 0.0368,1.91454 -5e-5,0.5891 -5e-5,1.20273 0,1.8409 0.0245,0.63819 0.0368,1.35 0.0368,2.13544 -0.81004,0.81001 -1.85322,1.71818 -3.12953,2.72454 -1.2764,0.98182 -2.70003,1.91454 -4.2709,2.79817 -1.54639,0.85909 -3.2032,1.59545 -4.97043,2.20908 -1.76729,0.58909 -3.53456,0.88363 -5.30179,0.88363 -1.00639,0 -2.28275,-0.675 -3.82908,-2.02499 -1.52183,-1.37454 -3.16637,-3.58362 -4.93361,-6.62725 -1.05547,1.22728 -2.06183,2.36864 -3.01908,3.42408 -0.95728,1.03091 -1.85319,1.93909 -2.68772,2.72453 -0.83455,0.78546 -1.62,1.39909 -2.35635,1.84091 -0.73637,0.44181 -1.41137,0.66272 -2.02499,0.66272 -1.22728,0 -2.23364,-0.31909 -3.01908,-0.95727 -0.78546,-0.63818 -1.42363,-1.44817 -1.91454,-2.42999 -0.46636,-1.00635 -0.81,-2.08635 -1.0309,-3.23998 -0.19637,-1.17817 -0.31909,-2.30726 -0.36818,-3.38726 l 5.37544,-6.41213 c -10e-6,0.71183 -0.0123,0.6808 -0.0368,1.36806 z" sodipodi:nodetypes="csccccccscccccccccccccccccccccccccccccccccccccccccscccscssccccc" />
      </g>
      <g id="g6266">
         <path transform="matrix(0.78350516,0,0,0.78350516,61.945322,526.09961)" d="m 378.95636,264.32495 a 131.28131,131.28131 0 1 1 -262.56262,0 131.28131,131.28131 0 1 1 262.56262,0 z" sodipodi:ry="131.28131" sodipodi:rx="131.28131" sodipodi:cy="264.32495" sodipodi:cx="247.67505" id="path7028" style="color:black;fill:#c7d3e0;fill-opacity:1;fill-rule:nonzero;stroke:none;stroke-width:6;marker:none;visibility:visible;display:inline;overflow:visible;enable-background:accumulate" sodipodi:type="arc" />
         <path sodipodi:nodetypes="sssssssss" inkscape:connector-curvature="0" inkscape:original-d="m 302.71545,766.98404 c 0,34.23658 -52.73737,-1.20004 -45.96783,38.85922 78.33226,463.53694 -47.46678,-4.62264 -47.46678,-38.85922 0,-20.07238 6.44203,-43.72871 21.36423,-69.78469 3.62478,-6.32931 0.96666,-12.30791 3.16914,-17.66198 4.1957,-10.19948 10.34014,-18.98767 22.18394,-18.98767 11.16087,0 17.91264,8.9505 22.18393,18.98767 2.32144,5.45517 -0.54482,11.63809 3.16914,17.66198 16.18151,26.24578 21.36423,49.05807 21.36423,69.78469 z" inkscape:path-effect="#path-effect6970" id="path6152" d="m 302.71545,766.98404 c -1.23749,10.88804 -7.10172,21.08268 -15.57946,28.02595 -8.47773,6.94326 -19.43156,10.66229 -30.38837,10.83327 -11.21187,0.17496 -22.53537,-3.37022 -31.32277,-10.33572 -8.7874,-6.9655 -14.88757,-17.38088 -16.14401,-28.5235 -1.37723,-12.21387 2.89627,-24.33719 7.95707,-35.53825 5.0608,-11.20106 11.03782,-22.18569 13.40716,-34.24644 1.154,-5.87423 1.43314,-11.93271 3.16914,-17.66198 1.51253,-4.99176 4.16999,-9.69931 8.02225,-13.21576 3.85227,-3.51646 8.94581,-5.77186 14.16169,-5.77191 5.21591,-5e-5 10.30953,2.25528 14.16183,5.77174 3.85229,3.51646 6.50974,8.22409 8.0221,13.21593 1.7358,5.72933 2.01458,11.78787 3.16914,17.66198 2.37062,12.06106 8.35283,23.04404 13.41599,34.24464 5.06317,11.20059 9.33634,23.32685 7.94824,35.54005" style="color:black;fill:#3a5069;fill-opacity:1;fill-rule:nonzero;stroke:none;stroke-width:25;marker:none;visibility:visible;display:inline;overflow:visible;enable-background:accumulate" />
         <path style="color:black;fill:#fcf9ee;fill-opacity:1;fill-rule:nonzero;stroke:none;stroke-width:25;marker:none;visibility:visible;display:inline;overflow:visible;enable-background:accumulate" d="m 290.32942,774.38926 c -1.52784,7.48849 -6.33764,14.13534 -12.65203,18.44118 -6.31439,4.30584 -14.03463,6.34571 -21.67739,6.34611 -7.64303,4e-4 -15.36384,-2.03886 -21.67854,-6.34473 -6.3147,-4.30587 -11.12446,-10.9535 -12.65089,-18.44256 -1.59643,-7.83252 0.38581,-15.96031 3.19221,-23.44503 2.80641,-7.48472 6.4555,-14.68735 8.38783,-22.44383 1.29778,-5.20935 1.798,-10.5824 2.84367,-15.84815 1.07381,-5.40746 2.78503,-10.81964 6.11804,-15.21107 1.66651,-2.19572 3.73043,-4.10856 6.12992,-5.46534 2.39949,-1.35678 5.14071,-2.14469 7.89701,-2.11007 2.72011,0.0342 5.40571,0.86841 7.7494,2.24945 2.34369,1.38105 4.35168,3.29689 5.97121,5.48259 3.23907,4.3714 4.89477,9.71629 5.94585,15.05444 1.03716,5.26746 1.54262,10.63959 2.84368,15.84815 1.93725,7.75543 5.58701,14.95757 8.39264,22.44275 2.80563,7.48519 4.78539,15.61374 3.18739,23.44611" id="path6177" inkscape:path-effect="#path-effect6179" inkscape:original-d="m 290.32942,774.38926 c 0,25.15817 -2.91908,24.78729 -34.32942,24.78729 -31.41035,0 -34.32943,0.37088 -34.32943,-24.78729 0,-14.74984 -1.80968,-22.50875 11.58004,-45.88886 3.25254,-5.67931 0.86739,-11.04392 2.84367,-15.84815 3.76482,-9.15202 11.62332,-22.78648 20.14497,-22.78648 8.03028,0 15.83381,13.7801 19.66646,22.78648 2.08303,4.89495 -0.48886,10.44291 2.84368,15.84815 14.51971,23.55042 11.58003,30.65825 11.58003,45.88886 z" inkscape:connector-curvature="0" sodipodi:nodetypes="sssssssss" />
         <path inkscape:connector-curvature="0" id="path6159" d="m 255.90595,684.64182 c -6.46832,0 -12.35874,2.61546 -16.34513,6.77645 3.98639,4.16097 9.87681,8.42289 16.34513,8.42289 6.46832,0 12.19625,-4.26192 16.18264,-8.42289 -3.98639,-4.16099 -9.71432,-6.77645 -16.18264,-6.77645 z" style="color:black;fill:#ffee71;fill-opacity:1;fill-rule:nonzero;stroke:none;stroke-width:25;marker:none;visibility:visible;display:inline;overflow:visible;enable-background:accumulate" sodipodi:nodetypes="scscs" />
         <path sodipodi:nodetypes="cssscc" inkscape:connector-curvature="0" id="path6946" d="m 231.70201,732.24666 c 0,0 -5.39514,10.65171 -5.39514,18.47199 0,7.79478 6.5571,11.03792 4.49098,14.36195 -3.51384,5.65315 -18.0791,1.50176 -16.84054,-15.35356 1.08803,-14.80685 3.413,-13.84476 3.413,-13.84476 z" style="fill:#3a5069;fill-opacity:1;stroke:none" />
         <use height="512" width="512" transform="matrix(-1,0,0,1,512,0)" id="use6950" xlink:href="#path6946" y="0" x="0" />
         <g id="g6976">
            <path sodipodi:nodetypes="sssssssss" inkscape:connector-curvature="0" inkscape:original-d="m 302.71545,766.98404 c 0,34.23658 -52.73737,-1.20004 -45.96783,38.85922 78.33226,463.53694 -47.46678,-4.62264 -47.46678,-38.85922 0,-20.07238 6.44203,-43.72871 21.36423,-69.78469 3.62478,-6.32931 0.96666,-12.30791 3.16914,-17.66198 4.1957,-10.19948 10.34014,-18.98767 22.18394,-18.98767 11.16087,0 17.91264,8.9505 22.18393,18.98767 2.32144,5.45517 -0.54482,11.63809 3.16914,17.66198 16.18151,26.24578 21.36423,49.05807 21.36423,69.78469 z" inkscape:path-effect="#path-effect6155" id="path7030" d="m 302.71545,766.98404 c -1.23749,10.88804 -7.10172,21.08268 -15.57946,28.02595 -8.47773,6.94326 -19.43156,10.66229 -30.38837,10.83327 -11.21187,0.17496 -22.53537,-3.37022 -31.32277,-10.33572 -8.7874,-6.9655 -14.88757,-17.38088 -16.14401,-28.5235 -1.37723,-12.21387 2.89627,-24.33719 7.95707,-35.53825 5.0608,-11.20106 11.03782,-22.18569 13.40716,-34.24644 1.154,-5.87423 1.43314,-11.93271 3.16914,-17.66198 1.51253,-4.99176 4.16999,-9.69931 8.02225,-13.21576 3.85227,-3.51646 8.94581,-5.77186 14.16169,-5.77191 5.21591,-5e-5 10.30953,2.25528 14.16183,5.77174 3.85229,3.51646 6.50974,8.22409 8.0221,13.21593 1.7358,5.72933 2.01458,11.78787 3.16914,17.66198 2.37062,12.06106 8.35283,23.04404 13.41599,34.24464 5.06317,11.20059 9.33634,23.32685 7.94824,35.54005" style="color:black;fill:none;stroke:#3a5069;stroke-width:3;stroke-opacity:1;marker:none;visibility:visible;display:inline;overflow:visible;enable-background:accumulate" />
         </g>
         <g clip-path="url(#clipPath6985)" id="g6972">
            <path style="color:black;fill:#ffee71;fill-opacity:1;fill-rule:nonzero;stroke:none;stroke-width:2;marker:none;visibility:visible;display:inline;overflow:visible;enable-background:accumulate" d="m 243.44596,778.55634 c 2.10351,7.48646 3.35458,24.25437 -6.99406,27.16195 -10.34866,2.90758 -18.01348,-12.05827 -20.11692,-19.54478 -0.90865,-3.23426 6.61424,-1.55975 7.17665,-3.61482 0.73945,-2.70192 -0.0459,-6.7312 4.2064,-7.92595 4.00201,-1.12441 5.33268,2.96542 7.31322,4.68936 1.72442,1.50098 7.43572,-4.25022 8.41471,-0.76576 z" id="path6179" inkscape:connector-curvature="0" sodipodi:nodetypes="szsssss" />
            <use x="0" y="0" xlink:href="#path6179" id="use6184" transform="matrix(-1,0,0,1,512,-2.3092842e-8)" width="512" height="512" />
         </g>
         <path sodipodi:nodetypes="sczcs" inkscape:connector-curvature="0" id="path6951" d="m 255.90595,684.64182 c -8.91725,0.30542 -13.18407,3.87409 -16.34401,6.78265 5.23791,0 6.76669,4.24802 16.34401,4.24802 9.57732,0 11.26516,-4.24802 16.18377,-4.24802 -3.2414,-3.68179 -9.80438,-7.00115 -16.18377,-6.78265 z" style="color:black;fill:#fff5a6;fill-opacity:1;fill-rule:nonzero;stroke:none;stroke-width:25;marker:none;visibility:visible;display:inline;overflow:visible;enable-background:accumulate" />
      </g>
      <g id="g6252">
         <path sodipodi:type="arc" style="color:black;fill:#c7d3e0;fill-opacity:1;fill-rule:nonzero;stroke:none;stroke-width:6;marker:none;visibility:visible;display:inline;overflow:visible;enable-background:accumulate" id="path7181" sodipodi:cx="247.67505" sodipodi:cy="264.32495" sodipodi:rx="131.28131" sodipodi:ry="131.28131" d="m 378.95636,264.32495 a 131.28131,131.28131 0 1 1 -262.56262,0 131.28131,131.28131 0 1 1 262.56262,0 z" transform="matrix(0.78350516,0,0,0.78350516,573.94532,526.09961)" />
         <path style="color:black;fill:#3a5069;fill-opacity:1;fill-rule:nonzero;stroke:none;stroke-width:25;marker:none;visibility:visible;display:inline;overflow:visible;enable-background:accumulate" d="m 814.71545,766.98404 c -1.23749,10.88804 -7.10172,21.08268 -15.57946,28.02595 -8.47773,6.94326 -19.43156,10.66229 -30.38837,10.83327 -11.21187,0.17496 -22.53537,-3.37022 -31.32277,-10.33572 -8.7874,-6.9655 -14.88757,-17.38088 -16.14401,-28.5235 -1.37723,-12.21387 2.89627,-24.33719 7.95707,-35.53825 5.0608,-11.20106 11.03782,-22.18569 13.40716,-34.24644 1.154,-5.87423 1.43314,-11.93271 3.16914,-17.66198 1.51253,-4.99176 4.16999,-9.69931 8.02225,-13.21576 3.85227,-3.51646 8.94581,-5.77186 14.16169,-5.77191 5.21591,-5e-5 10.30953,2.25528 14.16183,5.77174 3.85229,3.51646 6.50974,8.22409 8.0221,13.21593 1.7358,5.72933 2.01458,11.78787 3.16914,17.66198 2.37062,12.06106 8.35283,23.04404 13.41599,34.24464 5.06317,11.20059 9.33634,23.32685 7.94824,35.54005" id="path7183" inkscape:path-effect="#path-effect7217" inkscape:original-d="m 814.71545,766.98404 c 0,34.23658 -52.73737,-1.20004 -45.96783,38.85922 78.33226,463.53694 -47.46678,-4.62264 -47.46678,-38.85922 0,-20.07238 6.44203,-43.72871 21.36423,-69.78469 3.62478,-6.32931 0.96666,-12.30791 3.16914,-17.66198 4.1957,-10.19948 10.34014,-18.98767 22.18394,-18.98767 11.16087,0 17.91264,8.9505 22.18393,18.98767 2.32144,5.45517 -0.54482,11.63809 3.16914,17.66198 16.18151,26.24578 21.36423,49.05807 21.36423,69.78469 z" inkscape:connector-curvature="0" sodipodi:nodetypes="sssssssss" />
         <path sodipodi:nodetypes="sssssssss" inkscape:connector-curvature="0" inkscape:original-d="m 802.32942,774.38926 c 0,25.15817 -2.91908,24.78729 -34.32942,24.78729 -31.41035,0 -34.32943,0.37088 -34.32943,-24.78729 0,-14.74984 -1.80968,-22.50875 11.58004,-45.88886 3.25254,-5.67931 0.86739,-11.04392 2.84367,-15.84815 3.76482,-9.15202 11.62332,-22.78648 20.14497,-22.78648 8.03028,0 15.83381,13.7801 19.66646,22.78648 2.08303,4.89495 -0.48886,10.44291 2.84368,15.84815 14.51971,23.55042 11.58003,30.65825 11.58003,45.88886 z" inkscape:path-effect="#path-effect7219" id="path7185" d="m 802.32942,774.38926 c -1.52784,7.48849 -6.33764,14.13534 -12.65203,18.44118 -6.31439,4.30584 -14.03463,6.34571 -21.67739,6.34611 -7.64303,4e-4 -15.36384,-2.03886 -21.67854,-6.34473 -6.3147,-4.30587 -11.12446,-10.9535 -12.65089,-18.44256 -1.59643,-7.83252 0.38581,-15.96031 3.19221,-23.44503 2.80641,-7.48472 6.4555,-14.68735 8.38783,-22.44383 1.29778,-5.20935 1.798,-10.5824 2.84367,-15.84815 1.07381,-5.40746 2.78503,-10.81964 6.11804,-15.21107 1.66651,-2.19572 3.73043,-4.10856 6.12992,-5.46534 2.39949,-1.35678 5.14071,-2.14469 7.89701,-2.11007 2.72011,0.0342 5.40571,0.86841 7.7494,2.24945 2.34369,1.38105 4.35168,3.29689 5.97121,5.48259 3.23907,4.3714 4.89477,9.71629 5.94585,15.05444 1.03716,5.26746 1.54262,10.63959 2.84368,15.84815 1.93725,7.75543 5.58701,14.95757 8.39264,22.44275 2.80563,7.48519 4.78539,15.61374 3.18739,23.44611" style="color:black;fill:#fcf9ee;fill-opacity:1;fill-rule:nonzero;stroke:none;stroke-width:25;marker:none;visibility:visible;display:inline;overflow:visible;enable-background:accumulate" />
         <path sodipodi:nodetypes="scscs" style="color:black;fill:#ffee71;fill-opacity:1;fill-rule:nonzero;stroke:none;stroke-width:25;marker:none;visibility:visible;display:inline;overflow:visible;enable-background:accumulate" d="m 767.90595,684.64182 c -6.46832,0 -12.35874,2.61546 -16.34513,6.77645 3.98639,4.16097 9.87681,8.42289 16.34513,8.42289 6.46832,0 12.19625,-4.26192 16.18264,-8.42289 -3.98639,-4.16099 -9.71432,-6.77645 -16.18264,-6.77645 z" id="path7187" inkscape:connector-curvature="0" />
         <path style="fill:#3a5069;fill-opacity:1;stroke:none" d="m 743.70201,732.24666 c 0,0 -5.39514,10.65171 -5.39514,18.47199 0,7.79478 6.5571,11.03792 4.49098,14.36195 -3.51384,5.65315 -18.0791,1.50176 -16.84054,-15.35356 1.08803,-14.80685 3.413,-13.84476 3.413,-13.84476 z" id="path7189" inkscape:connector-curvature="0" sodipodi:nodetypes="cssscc" />
         <use x="0" y="0" xlink:href="#path6946" id="use7191" transform="matrix(-1,0,0,1,1024,-2.6171874e-6)" width="512" height="512" />
         <g transform="translate(512,-2.6171874e-6)" id="g7193">
            <path style="color:black;fill:none;stroke:#3a5069;stroke-width:3;stroke-opacity:1;marker:none;visibility:visible;display:inline;overflow:visible;enable-background:accumulate" d="m 302.71545,766.98404 c -1.23749,10.88804 -7.10172,21.08268 -15.57946,28.02595 -8.47773,6.94326 -19.43156,10.66229 -30.38837,10.83327 -11.21187,0.17496 -22.53537,-3.37022 -31.32277,-10.33572 -8.7874,-6.9655 -14.88757,-17.38088 -16.14401,-28.5235 -1.37723,-12.21387 2.89627,-24.33719 7.95707,-35.53825 5.0608,-11.20106 11.03782,-22.18569 13.40716,-34.24644 1.154,-5.87423 1.43314,-11.93271 3.16914,-17.66198 1.51253,-4.99176 4.16999,-9.69931 8.02225,-13.21576 3.85227,-3.51646 8.94581,-5.77186 14.16169,-5.77191 5.21591,-5e-5 10.30953,2.25528 14.16183,5.77174 3.85229,3.51646 6.50974,8.22409 8.0221,13.21593 1.7358,5.72933 2.01458,11.78787 3.16914,17.66198 2.37062,12.06106 8.35283,23.04404 13.41599,34.24464 5.06317,11.20059 9.33634,23.32685 7.94824,35.54005" id="path7195" inkscape:path-effect="#path-effect6155" inkscape:original-d="m 302.71545,766.98404 c 0,34.23658 -52.73737,-1.20004 -45.96783,38.85922 78.33226,463.53694 -47.46678,-4.62264 -47.46678,-38.85922 0,-20.07238 6.44203,-43.72871 21.36423,-69.78469 3.62478,-6.32931 0.96666,-12.30791 3.16914,-17.66198 4.1957,-10.19948 10.34014,-18.98767 22.18394,-18.98767 11.16087,0 17.91264,8.9505 22.18393,18.98767 2.32144,5.45517 -0.54482,11.63809 3.16914,17.66198 16.18151,26.24578 21.36423,49.05807 21.36423,69.78469 z" inkscape:connector-curvature="0" sodipodi:nodetypes="sssssssss" />
         </g>
         <g transform="translate(512,-2.6171874e-6)" id="g7209" clip-path="url(#clipPath6985)">
            <path sodipodi:nodetypes="szsssss" inkscape:connector-curvature="0" id="path7211" d="m 243.44596,778.55634 c 2.10351,7.48646 3.35458,24.25437 -6.99406,27.16195 -10.34866,2.90758 -18.01348,-12.05827 -20.11692,-19.54478 -0.90865,-3.23426 6.61424,-1.55975 7.17665,-3.61482 0.73945,-2.70192 -0.0459,-6.7312 4.2064,-7.92595 4.00201,-1.12441 5.33268,2.96542 7.31322,4.68936 1.72442,1.50098 7.43572,-4.25022 8.41471,-0.76576 z" style="color:black;fill:#ffee71;fill-opacity:1;fill-rule:nonzero;stroke:none;stroke-width:2;marker:none;visibility:visible;display:inline;overflow:visible;enable-background:accumulate" />
            <use height="512" width="512" transform="matrix(-1,0,0,1,512,-2.3092842e-8)" id="use7213" xlink:href="#path6179" y="0" x="0" />
         </g>
         <path style="color:black;fill:#fff5a6;fill-opacity:1;fill-rule:nonzero;stroke:none;stroke-width:25;marker:none;visibility:visible;display:inline;overflow:visible;enable-background:accumulate" d="m 767.90595,684.64182 c -8.91725,0.30542 -13.18407,3.87409 -16.34401,6.78265 5.23791,0 6.76669,4.24802 16.34401,4.24802 9.57732,0 11.26516,-4.24802 16.18377,-4.24802 -3.2414,-3.68179 -9.80438,-7.00115 -16.18377,-6.78265 z" id="path7215" inkscape:connector-curvature="0" sodipodi:nodetypes="sczcs" />
      </g>
      <text xml:space="preserve" style="font-size:49.73729324px;font-style:normal;font-variant:normal;font-weight:normal;font-stretch:normal;text-align:start;line-height:125%;writing-mode:lr-tb;text-anchor:start;color:black;fill:black;stroke:none;stroke-width:5;marker:none;visibility:visible;display:inline;overflow:visible;enable-background:accumulate;font-family:sans;-inkscape-font-specification:sans" x="-1254.5995" y="1403.2375" id="text11746" sodipodi:linespacing="125%"><tspan sodipodi:role="line" x="-1254.5995" y="1403.2375" id="tspan11750">OLD</tspan></text>
      <g transform="matrix(0.95081301,0,0,1.0517315,0.8698052,17.090367)" style="font-size:75.40331267999999909px;font-style:normal;font-variant:normal;font-weight:normal;font-stretch:normal;text-align:start;line-height:125%;writing-mode:lr-tb;text-anchor:start;color:black;fill:#2c3d50;fill-opacity:1;stroke:none;stroke-width:2;marker:none;visibility:visible;display:inline;overflow:visible;enable-background:accumulate;font-family:Pacifico;-inkscape-font-specification:Pacifico" id="g6216">
         <path sodipodi:nodetypes="cccssccsssccscscsscsccsscsc" inkscape:connector-curvature="0" d="m 190.78924,852.42536 c 1.96932,-13.63202 6.77742,-26.84739 14.02837,-38.55781 1.84111,-2.97343 3.8772,-5.8943 6.59799,-8.09164 1.3604,-1.09866 2.88582,-2.00566 4.53649,-2.58277 1.65066,-0.57711 3.42927,-0.81841 5.16469,-0.60383 1.81216,0.22407 3.55634,0.94694 5.01383,2.04688 1.45749,1.09993 2.62713,2.57218 3.39622,4.22827 0.81929,1.76418 1.1838,3.72392 1.16516,5.66897 -0.0186,1.94505 -0.41366,3.87648 -1.05455,5.71301 -1.28177,3.67305 -3.515,6.93013 -5.81815,10.06537 -7.38253,10.04973 -15.75813,19.36955 -24.96516,27.77962 -0.73372,1.7615 -0.825,3.78256 -0.25304,5.60302 0.3861,1.2289 1.08322,2.38197 2.09763,3.17585 0.89274,0.69865 1.9984,1.09466 3.1222,1.24354 1.1238,0.14888 2.26837,0.0602 3.38457,-0.13782 4.16907,-0.73942 7.90068,-2.9503 11.74719,-4.72013 3.27267,-1.5058 6.68393,-2.71022 10.17655,-3.59305 1.471,0.1463 2.84124,1.07486 3.52226,2.3869 0.68102,1.31204 0.65177,2.96701 -0.0752,4.25417 -0.71579,1.26738 -2.01511,2.11433 -3.37963,2.62097 -1.36453,0.50664 -2.81713,0.71736 -4.24151,1.01697 -7.21808,1.5183 -13.92313,5.37209 -21.28455,5.83609 -1.77551,0.11191 -3.57261,0.0206 -5.30265,-0.39399 -1.73004,-0.41462 -3.39353,-1.15988 -4.78037,-2.27416 -1.39988,-1.12475 -2.50034,-2.61877 -3.15934,-4.28923 -0.65901,-1.67046 -0.87501,-3.51341 -0.62012,-5.29098 -1.60757,1.13761 -3.11065,2.42283 -4.48415,3.8342 -0.64898,0.66688 -1.27293,1.36532 -2.01028,1.93296 -0.73735,0.56764 -1.60985,1.00402 -2.53902,1.05445 -0.56469,0.0307 -1.13539,-0.0839 -1.64912,-0.32029 -0.51374,-0.23642 -0.97016,-0.59352 -1.3316,-1.02846 -0.72289,-0.86987 -1.04715,-2.04051 -0.956,-3.16787 0.0657,-0.81325 0.33678,-1.60322 0.73751,-2.31393 0.40073,-0.71071 0.92904,-1.34442 1.51917,-1.90784 1.18027,-1.12683 2.59581,-1.96951 3.95647,-2.87027 2.7811,-1.8411 5.37765,-3.96084 7.73813,-6.31717 m 27.88493,-26.41274 c 1.77428,-2.23557 3.67441,-4.5193 4.34419,-7.29368 0.33489,-1.3872 0.33593,-2.87735 -0.1585,-4.21601 -0.49444,-1.33865 -1.51456,-2.50783 -2.8413,-3.03338 -0.92394,-0.36599 -1.96035,-0.41095 -2.93118,-0.19856 -0.97083,0.21238 -1.87757,0.67413 -2.66885,1.27537 -1.58256,1.20249 -2.68336,2.92031 -3.68241,4.63856 -5.20015,8.94367 -8.55555,18.95454 -9.79567,29.22551 3.88239,-3.55659 7.50133,-7.40069 10.81739,-11.49044 2.36757,-2.91996 4.57938,-5.96284 6.91633,-8.90737" id="path6218" inkscape:original-d="m 190.78924,852.42536 c 1.24125,-13.39066 5.93545,-27.59215 14.02837,-38.55781 4.06304,-5.23373 9.37293,-10.54763 16.29917,-11.27824 3.9489,-0.48992 7.50423,2.5 8.41005,6.27515 2.01079,8.38029 -1.42886,14.38261 -5.70754,21.44735 -5.62314,9.28465 -24.96516,27.77962 -24.96516,27.77962 0,0 -0.12159,3.93906 -0.25304,5.60302 -0.13144,1.66397 0.37678,2.9061 2.09763,3.17585 2.2103,0.34648 4.37115,1.72286 6.50677,1.10572 2.13563,-0.61712 9.63776,-4.15215 11.74719,-4.72013 5.22154,-1.40593 4.95927,-2.20318 10.17655,-3.59305 3.52607,-0.62492 5.19961,4.0862 3.44707,6.64107 -1.71435,2.4335 -4.96799,2.69535 -7.62114,3.63794 -6.9084,2.45436 -14.0056,4.66819 -21.28455,5.83609 -4.09251,0.58957 -7.09753,0.99272 -10.08302,-2.66815 -1.86586,-2.28796 -2.87191,-8.25308 -3.77946,-9.58021 -1.39142,0.53691 -2.93235,2.25612 -4.48415,3.8342 -1.5518,1.57808 -3.11445,3.01503 -4.5493,2.98741 -3.20778,-0.0617 -5.88327,-2.95412 -3.93672,-4.51662 1.80044,-1.33368 4.32958,-5.85146 6.21315,-7.09204 1.88358,-1.24059 5.91702,-4.99186 7.73813,-6.31717 z m 27.88493,-26.41274 c 1.24791,-3.34574 4.1599,-11.8498 1.34439,-14.54307 -2.64586,-2.53098 -7.59839,3.35529 -9.28244,5.71537 -6.2764,8.79592 -9.79567,29.22551 -9.79567,29.22551 4.13574,-2.90694 7.74101,-7.57241 10.81739,-11.49044 3.07637,-3.91803 4.89613,-4.23616 6.91633,-8.90737 z" inkscape:path-effect="#path-effect6211" style="line-height:125%;fill:#2c3d50;fill-opacity:1;marker:none;font-family:Pacifico;-inkscape-font-specification:Pacifico" />
         <path d="m 250.85267,866.50212 c -0.88366,0.81 -1.9882,1.68136 -3.31362,2.61408 -1.30093,0.90818 -2.71228,1.755 -4.23408,2.54044 -1.52182,0.76091 -3.08045,1.39909 -4.67588,1.91454 -1.57092,0.51545 -3.06818,0.77318 -4.4918,0.77318 -1.27637,0 -2.35636,-0.17182 -3.23999,-0.51545 -0.85909,-0.36818 -1.55863,-0.87136 -2.09863,-1.50954 -0.54,-0.63818 -0.93272,-1.41136 -1.17817,-2.31954 -0.22091,-0.93271 -0.33137,-1.95135 -0.33137,-3.05589 0,-1.54635 0.17182,-3.33816 0.51546,-5.37543 0.36817,-2.0618 0.80999,-4.18497 1.32545,-6.36952 0.51544,-2.20906 1.05544,-4.40587 1.61999,-6.59043 0.58908,-2.18451 1.10453,-4.19722 1.54636,-6.03815 0.1718,-0.63815 0.51544,-1.17815 1.0309,-1.62 0.51544,-0.46632 1.09226,-0.8345 1.73045,-1.10454 0.66271,-0.29451 1.33771,-0.50314 2.02499,-0.6259 0.7118,-0.14724 1.34998,-0.22088 1.91454,-0.22091 1.03088,3e-5 1.73043,0.1964 2.09862,0.58909 0.36817,0.36821 0.55226,0.87139 0.55227,1.50953 -1e-5,0.54004 -0.12274,1.32549 -0.36818,2.35636 -0.24547,1.00639 -0.55228,2.16002 -0.92045,3.46089 -0.36819,1.27639 -0.76092,2.6632 -1.17817,4.16044 -0.41729,1.47274 -0.81001,2.95773 -1.17818,4.45498 -0.36819,1.47274 -0.67501,2.92091 -0.92045,4.34453 -0.24547,1.39909 -0.36819,2.66318 -0.36818,3.79225 -1e-5,1.10455 0.12271,1.98819 0.36818,2.6509 0.24544,0.63819 0.74862,0.95728 1.50954,0.95727 0.88361,10e-6 1.86543,-0.30681 2.94544,-0.92045 1.07998,-0.61363 2.17224,-1.34999 3.2768,-2.20908 1.10452,-0.88362 2.18452,-1.7918 3.23999,-2.72454 1.05542,-0.93271 1.98815,-1.73043 2.79817,-2.39317 l 0,7.47406 m -16.45766,-37.84893 c -1e-5,-0.56449 0.12272,-1.20267 0.36818,-1.91453 0.24545,-0.71177 0.63817,-1.37449 1.17818,-1.98818 0.56453,-0.63813 1.30089,-1.16585 2.20908,-1.58317 0.93271,-0.44177 2.08634,-0.66268 3.4609,-0.66273 0.85906,5e-5 1.66906,0.0982 2.42999,0.29455 0.76088,0.19641 1.4236,0.50323 1.98817,0.92045 0.56452,0.39277 1.00633,0.9205 1.32545,1.58317 0.34361,0.66278 0.51543,1.44823 0.51545,2.35636 -2e-5,0.83458 -0.13502,1.64458 -0.405,2.42999 -0.27002,0.78549 -0.69956,1.48503 -1.28863,2.09862 -0.58911,0.61368 -1.33774,1.11686 -2.2459,1.50954 -0.88365,0.36822 -1.95137,0.55231 -3.20317,0.55227 -2.16,4e-5 -3.75545,-0.50314 -4.78634,-1.50954 -1.03092,-1.03086 -1.54637,-2.39312 -1.54636,-4.0868" style="line-height:125%;fill:#2c3d50;fill-opacity:1;marker:none;font-family:Pacifico;-inkscape-font-specification:Pacifico" id="path6220" inkscape:connector-curvature="0" />
         <path d="m 248.20177,866.64939 c 0,-1.61998 0.0982,-3.48543 0.29455,-5.59634 0.19636,-2.13543 0.44181,-4.29541 0.73636,-6.47997 0.29454,-2.20906 0.6259,-4.33223 0.99409,-6.36952 0.36817,-2.03723 0.72408,-3.77995 1.06772,-5.22816 0.26999,-1.12905 0.78544,-2.07404 1.54636,-2.83498 0.78544,-0.76087 1.84089,-1.14133 3.16635,-1.14136 1.32543,3e-5 2.24588,0.40503 2.76135,1.21499 0.51543,0.81003 0.77316,1.89003 0.77318,3.23999 -2e-5,0.36821 -0.0368,0.87139 -0.11046,1.50954 -0.0736,0.61366 -0.17183,1.30093 -0.29454,2.06181 -0.0982,0.73638 -0.20865,1.50956 -0.33137,2.31953 -0.12274,0.78548 -0.24546,1.52184 -0.36818,2.20908 -0.0982,0.66275 -0.1841,1.25184 -0.25772,1.76727 -0.0736,0.49093 -0.11047,0.82229 -0.11046,0.99409 l 0.73636,0 c 0.14726,-0.26998 0.38044,-0.69953 0.69955,-1.28864 0.31907,-0.61361 0.68725,-1.31315 1.10454,-2.09862 0.41725,-0.78543 0.85907,-1.6077 1.32545,-2.46681 0.49089,-0.88361 0.94497,-1.71815 1.36226,-2.50363 0.41725,-0.80996 0.79771,-1.52178 1.14136,-2.13544 0.34362,-0.6136 0.60134,-1.06769 0.77318,-1.36227 0.78543,-1.32541 1.68133,-2.23359 2.68772,-2.72453 1.00633,-0.49087 2.12314,-0.73633 3.35044,-0.73636 1.22724,3e-5 2.19678,0.51548 2.90862,1.54635 0.73633,1.03094 1.10451,2.45457 1.10454,4.2709 -3e-5,0.27002 -0.0614,0.72411 -0.18409,1.36226 -0.0982,0.63821 -0.23321,1.39911 -0.405,2.28272 -0.17185,0.88366 -0.36821,1.8532 -0.58909,2.90862 -0.19639,1.05548 -0.38048,2.13547 -0.55227,3.23999 -0.17184,1.10456 -0.31911,2.19683 -0.44181,3.2768 -0.0982,1.08001 -0.1473,2.0741 -0.14727,2.98226 -3e-5,1.52183 0.18406,2.77364 0.55227,3.75544 0.39269,0.98182 0.99405,1.47273 1.80408,1.47272 0.36815,10e-6 0.78542,-0.11044 1.25181,-0.33136 0.49088,-0.2209 1.00633,-0.50317 1.54636,-0.84681 0.56451,-0.36817 1.12905,-0.78544 1.69363,-1.25182 0.58905,-0.46635 1.16587,-0.94498 1.73045,-1.4359 1.30086,-1.15362 2.66313,-2.45452 4.0868,-3.90271 l 0.6259,8.24724 -1.8409,1.39908 c -1.0064,0.76091 -2.0373,1.52182 -3.09271,2.28272 -1.03094,0.76091 -2.11094,1.44818 -3.23999,2.06181 -1.12912,0.58909 -2.30729,1.08 -3.53453,1.47272 -1.2273,0.36818 -2.51593,0.55227 -3.86589,0.55227 -1.35002,0 -2.49138,-0.96954 -3.42408,-2.90862 -0.9082,-1.96363 -1.36229,-4.82316 -1.36226,-8.5786 -3e-5,-1.47271 0.0981,-3.05588 0.29454,-4.74953 0.19634,-1.71815 0.44179,-3.55905 0.73636,-5.5227 l -0.58909,0 -9.64632,19.14537 c -0.49092,1.00636 -1.04319,1.69363 -1.65681,2.06181 -0.61365,0.36818 -1.32546,0.55227 -2.13545,0.55227 -1.00636,0 -1.81636,-0.20863 -2.42999,-0.62591 -0.61364,-0.44181 -1.09227,-1.01863 -1.4359,-1.73044 -0.31909,-0.73636 -0.54,-1.55863 -0.66272,-2.46681 -0.0982,-0.93272 -0.14728,-1.88999 -0.14728,-2.87181" style="line-height:125%;fill:#2c3d50;fill-opacity:1;marker:none;font-family:Pacifico;-inkscape-font-specification:Pacifico" id="path6222" inkscape:connector-curvature="0" />
         <path d="m 309.90878,841.39223 c -3e-5,0.66276 -0.0737,1.57093 -0.22091,2.72453 -0.1473,1.12912 -0.34367,2.38093 -0.58909,3.75544 -0.22094,1.35002 -0.46639,2.7491 -0.73636,4.19726 -0.27003,1.44819 -0.52775,2.79819 -0.77318,4.04998 -0.22094,1.25183 -0.40503,2.35637 -0.55227,3.31362 -0.1473,0.93274 -0.22094,1.58319 -0.22091,1.95136 -3e-5,0.68728 0.0122,1.32546 0.0368,1.91453 0.0245,0.56456 0.0981,1.06774 0.22091,1.50954 0.1227,0.41728 0.30679,0.74864 0.55227,0.99409 0.26997,0.22092 0.65042,0.33137 1.14136,0.33136 0.53997,10e-6 1.19042,-0.13499 1.95135,-0.405 0.78542,-0.26999 1.60769,-0.62589 2.46681,-1.06772 0.8836,-0.46635 1.7795,-0.9818 2.68772,-1.54636 0.90814,-0.58907 1.76722,-1.20271 2.57726,-1.8409 0.8345,-0.63816 1.58313,-1.26407 2.2459,-1.87772 0.68722,-0.63816 1.23949,-1.22725 1.65681,-1.76726 -4e-5,0.81001 -4e-5,1.54637 0,2.20908 0.0245,0.66274 0.0368,1.30092 0.0368,1.91454 -5e-5,0.5891 -5e-5,1.20273 0,1.8409 0.0245,0.63819 0.0368,1.35 0.0368,2.13544 -0.54005,0.54001 -1.21504,1.11682 -2.025,1.73045 -0.78549,0.61364 -1.66912,1.22727 -2.65089,1.8409 -0.95731,0.61364 -1.98821,1.20273 -3.09272,1.76727 -1.08003,0.56454 -2.1723,1.06772 -3.2768,1.50954 -1.10457,0.41727 -2.19684,0.7609 -3.27681,1.0309 -1.08002,0.24545 -2.08638,0.36818 -3.01907,0.36818 -0.93275,0 -1.73048,-0.18409 -2.39317,-0.55227 -0.66275,-0.36818 -1.23957,-0.88363 -1.73045,-1.54636 -0.46639,-0.66272 -0.87138,-1.44817 -1.215,-2.35635 -0.31911,-0.93272 -0.60138,-1.96362 -0.84681,-3.09271 -0.88365,1.15363 -1.81638,2.22136 -2.79817,3.20316 -0.98183,0.95728 -1.98819,1.79182 -3.01908,2.50363 -1.00637,0.71182 -2.03728,1.27636 -3.09271,1.69363 -1.03092,0.39272 -2.03728,0.58909 -3.01908,0.58909 -0.81001,0 -1.57091,-0.135 -2.28272,-0.405 -0.71182,-0.27 -1.35,-0.72409 -1.91454,-1.36227 -0.54,-0.63818 -0.96954,-1.47272 -1.28863,-2.50362 -0.31909,-1.05545 -0.47863,-2.35635 -0.47863,-3.90271 0,-1.88999 0.2209,-4.29543 0.66272,-7.21634 0.46636,-2.92088 1.0309,-6.25904 1.69363,-10.0145 0.0491,-0.36815 0.135,-0.85906 0.25773,-1.47272 0.14726,-0.63815 0.33135,-1.32542 0.55227,-2.06181 0.24545,-0.73633 0.53999,-1.48496 0.88363,-2.2459 0.34363,-0.76087 0.74863,-1.44814 1.215,-2.06181 0.46635,-0.6136 1.00635,-1.11678 1.61999,-1.50954 0.63817,-0.39269 1.34998,-0.60132 2.13544,-0.6259 1.30089,0.0491 2.23362,0.22094 2.79817,0.51545 0.56453,0.27003 0.8468,0.61367 0.84682,1.0309 -0.22092,1.30094 -0.46638,2.74911 -0.73636,4.34453 -0.24547,1.59547 -0.5032,3.20319 -0.77318,4.82316 -0.27001,1.62002 -0.52774,3.20319 -0.77318,4.74953 -0.24547,1.52183 -0.46637,2.88409 -0.66272,4.0868 -0.19638,1.20273 -0.35592,2.17227 -0.47864,2.90862 -0.0982,0.73637 -0.14728,1.11683 -0.14727,1.14136 -10e-6,0.44183 0.0368,0.87137 0.11046,1.28863 0.0982,0.39274 0.23316,0.74864 0.40499,1.06772 0.17181,0.3191 0.39272,0.57683 0.66273,0.77318 0.26998,0.19637 0.58907,0.29455 0.95727,0.29455 0.53998,0 1.09225,-0.135 1.65681,-0.405 0.56452,-0.29454 1.09225,-0.69954 1.58317,-1.215 0.51544,-0.53999 0.96952,-1.19044 1.36227,-1.95135 0.39271,-0.78544 0.68725,-1.66907 0.88363,-2.6509 L 301.367,841.1345 c 0.1227,-0.58905 0.61361,-1.07996 1.47272,-1.47272 0.8836,-0.41723 1.87769,-0.62587 2.98226,-0.6259 1.25178,3e-5 2.24587,0.22094 2.98226,0.66272 0.73633,0.44185 1.10451,1.00639 1.10454,1.69363" style="line-height:125%;fill:#2c3d50;fill-opacity:1;marker:none;font-family:Pacifico;-inkscape-font-specification:Pacifico" id="path6224" inkscape:connector-curvature="0" />
         <path sodipodi:nodetypes="csccccccscccccccccccccccccccccccccccccccccccccccccscccscssccccc" d="m 322.31645,858.99704 c -0.0245,0.66274 -0.0368,1.28864 -0.0368,1.87772 0,0.5891 0.0245,1.1291 0.0736,1.61999 0.0491,0.46637 0.14726,0.87137 0.29454,1.215 0.17181,0.34364 0.39272,0.61364 0.66273,0.80999 0.29453,0.19637 0.68726,0.29456 1.17817,0.29455 0.26999,10e-6 0.56454,-0.15954 0.88364,-0.47864 0.34362,-0.31908 0.72407,-0.77317 1.14136,-1.36226 0.4418,-0.58908 0.93271,-1.28862 1.47272,-2.09863 0.53998,-0.80998 1.15361,-1.69362 1.8409,-2.6509 -0.76092,-1.76725 -1.50955,-3.68178 -2.2459,-5.74361 -0.73637,-2.08633 -1.46046,-4.35678 -2.17227,-6.81134 -0.0491,-0.14724 -0.0736,-0.26997 -0.0736,-0.36818 -10e-6,-0.44178 0.18408,-0.90814 0.55227,-1.39908 0.36817,-0.49088 0.83453,-0.94497 1.39908,-1.36227 0.58908,-0.41724 1.21499,-0.76087 1.87772,-1.0309 0.68726,-0.29451 1.33771,-0.44179 1.95136,-0.44182 0.49089,3e-5 0.90816,0.0859 1.25181,0.25773 0.36816,0.17185 0.63816,0.42957 0.81,0.77318 0.26998,0.63821 0.69952,1.66911 1.28863,3.09271 0.58907,1.42366 1.26406,3.03138 2.02499,4.82316 1.25179,-1.32542 2.6386,-2.6386 4.16044,-3.93953 1.52178,-1.32542 3.20314,-2.60177 5.04407,-3.82907 0.6136,-0.41724 1.19041,-0.71178 1.73044,-0.88363 0.53997,-0.17179 1.03087,-0.2577 1.47272,-0.25773 0.56451,3e-5 1.05542,0.12276 1.47272,0.36818 0.44179,0.22094 0.80997,0.52776 1.10455,0.92045 0.2945,0.39276 0.51541,0.84685 0.66272,1.36227 0.14723,0.51548 0.22087,1.0432 0.22091,1.58317 -4e-5,0.78548 -0.15958,1.54639 -0.47864,2.28272 -0.31912,0.71184 -0.81003,1.27638 -1.47272,1.69363 -1.91457,1.20274 -3.73092,2.55274 -5.44906,4.04998 -1.69366,1.47274 -3.31365,3.0191 -4.85998,4.63907 0.53997,1.08001 1.07997,2.09864 1.61999,3.0559 0.56452,0.95728 1.10451,1.79182 1.61999,2.50362 0.51543,0.71183 1.00633,1.27637 1.47272,1.69363 0.49088,0.39274 0.94497,0.5891 1.36227,0.58909 0.53997,10e-6 1.19042,-0.13499 1.95136,-0.405 0.78541,-0.26999 1.60768,-0.62589 2.4668,-1.06772 0.8836,-0.46635 1.7795,-0.9818 2.68772,-1.54636 0.90814,-0.58907 1.76722,-1.20271 2.57726,-1.8409 0.8345,-0.63816 1.58313,-1.26407 2.2459,-1.87772 0.68723,-0.63816 1.2395,-1.22725 1.65681,-1.76726 -4e-5,0.81001 -4e-5,1.54637 0,2.20908 0.0245,0.66274 0.0368,1.30092 0.0368,1.91454 -5e-5,0.5891 -5e-5,1.20273 0,1.8409 0.0245,0.63819 0.0368,1.35 0.0368,2.13544 -0.81004,0.81001 -1.85322,1.71818 -3.12953,2.72454 -1.2764,0.98182 -2.70003,1.91454 -4.2709,2.79817 -1.54639,0.85909 -3.2032,1.59545 -4.97043,2.20908 -1.76729,0.58909 -3.53456,0.88363 -5.30179,0.88363 -1.00639,0 -2.28275,-0.675 -3.82908,-2.02499 -1.52183,-1.37454 -3.16637,-3.58362 -4.93361,-6.62725 -1.05547,1.22728 -2.06183,2.36864 -3.01908,3.42408 -0.95728,1.03091 -1.85319,1.93909 -2.68772,2.72453 -0.83455,0.78546 -1.62,1.39909 -2.35635,1.84091 -0.73637,0.44181 -1.41137,0.66272 -2.02499,0.66272 -1.22728,0 -2.23364,-0.31909 -3.01908,-0.95727 -0.78546,-0.63818 -1.42363,-1.44817 -1.91454,-2.42999 -0.46636,-1.00635 -0.81,-2.08635 -1.0309,-3.23998 -0.19637,-1.17817 -0.31909,-2.30726 -0.36818,-3.38726 l 5.37544,-6.41213 c -10e-6,0.71183 -0.0123,0.6808 -0.0368,1.36806 z" style="line-height:125%;fill:#2c3d50;fill-opacity:1;marker:none;font-family:Pacifico;-inkscape-font-specification:Pacifico" id="path6226" inkscape:connector-curvature="0" />
      </g>
   </g>
</svg>
